<?xml version="1.0" encoding="UTF-8"?>
<svg id="Ebene_2" data-name="Ebene 2" xmlns="http://www.w3.org/2000/svg" viewBox="0 0 550 550">
  <defs>
    <style>
      .cls-1 {
        fill: #1f95dd;
      }

      .cls-2 {
        fill: #fff;
      }
    </style>
  </defs>
  <g id="Code">
    <circle class="cls-1" cx="275" cy="275" r="275"/>
    <g>
      <path class="cls-2" d="m393.16,275.18c0,45.05,0,90.1,0,135.15,0,7.15-3.26,10.48-10.34,10.48-71.85,0-143.7,0-215.55,0-7.09,0-10.35-3.34-10.35-10.48,0-71.96.02-143.92-.07-215.88,0-3.89,1.23-6.72,3.94-9.41,18.01-17.87,35.89-35.87,53.92-53.72,1.17-1.16,3.21-2.05,4.85-2.05,54.42-.11,108.84-.09,163.26-.08,7.08,0,10.34,3.34,10.34,10.49,0,45.17,0,90.33,0,135.5Zm-163.67-127.46c0,14.71,0,29.04,0,43.37,0,7.68-3.38,11.08-11.03,11.09-13.16.02-26.32,0-39.48,0-1.27,0-2.54,0-3.95,0v200.01h200.06v-254.49h-145.6Zm-18.51,14c-7.3,7.38-14.62,14.79-21.75,22h21.75v-22Z"/>
      <path class="cls-2" d="m241.34,241.79c3.98,4.05,8.03,8.17,12.1,12.3-9.69,9.52-19.61,19.26-29.5,28.98,10.64,10.47,20.55,20.22,30.11,29.63-4.96,4.95-9.18,9.16-13.42,13.39-11.67-11.61-23.99-23.75-36.14-36.03-3.09-3.12-3.38-8.35-.37-11.38,12.3-12.44,24.85-24.65,37.23-36.88Z"/>
      <path class="cls-2" d="m308.9,326.59c-4.13-4.15-8.21-8.26-12.51-12.58,9.8-9.64,19.78-19.46,30.03-29.55-10.52-10.49-20.38-20.33-30.05-29.98,4.34-4.35,8.49-8.51,12.84-12.88,6.99,7.01,14.18,14.21,21.37,21.41,4.77,4.78,9.6,9.5,14.3,14.34,4,4.13,4.14,9.3.19,13.3-11.74,11.88-23.59,23.64-35.41,35.44-.24.24-.58.37-.76.49Z"/>
    </g>
  </g>
</svg>