<?xml version="1.0" encoding="UTF-8"?>
<svg id="Ebene_2" data-name="Ebene 2" xmlns="http://www.w3.org/2000/svg" viewBox="0 0 550 550">
  <defs>
    <style>
      .cls-1 {
        fill: #fff;
      }

      .cls-2 {
        fill: #898989;
      }

      .cls-3 {
        fill: #532ac4;
      }

      .cls-4 {
        fill: #bcbcbc;
      }
    </style>
  </defs>
  <g id="Help">
    <circle class="cls-3" cx="275" cy="275" r="275"/>
    <g>
      <g>
        <path class="cls-2" d="m408.09,189.82c14.72,5.74,27.41,15.22,36.1,29.66,6.44,10.72,9.74,22.3,9.95,34.79.33,19.71-6.83,36.32-20.77,50.04-12.79,12.59-28.33,18.97-46.22,19.76-4.04.18-5.95,1.71-7.34,5.52-1.26,3.48-2.3,7.09-4.03,10.33-4.13,7.76-14.09,11.17-22.43,8.01-8.64-3.27-13.69-12.11-11.64-20.97,2.57-11.07,6.75-21.35,15.61-29.11,7.66-6.7,16.52-10.6,26.68-11,9.38-.37,17.52-3.23,24.14-10.08,12.45-12.88,11.21-33.83-2.31-45.72-14.5-12.75-36.75-8.67-46.6,6.03-2.08,3.11-3.57,6.65-5.08,10.11-3.3,7.57-13.32,12.18-21.3,10.14-11.12-2.84-16.84-14.89-12.93-24.96,9.67-24.93,27.51-40.1,53.75-45.24,11.39-2.23,22.6-.99,34.41,2.66Z"/>
        <path class="cls-2" d="m336.05,401.87c-9.97-3.31-15.14-13.54-11.9-23.57,3.19-9.87,13.98-15.33,23.82-12.04,9.61,3.21,14.75,13.98,11.55,23.88-3.12,9.64-14.68,15.31-23.47,11.73Z"/>
      </g>
      <g>
        <path class="cls-4" d="m142.05,196.72c15.38-5.07,31.59-5.88,47.88-.13,12.08,4.26,22.25,11.26,30.57,20.99,13.13,15.35,18.31,33.15,16.26,53.09-1.88,18.3-9.99,33.48-23.61,45.79-3.07,2.78-3.59,5.24-2.19,9.15,1.28,3.57,2.81,7.1,3.57,10.79,1.8,8.83-3.84,18.02-12.49,20.97-8.96,3.06-18.73-.63-22.88-8.96-5.2-10.43-8.61-21.27-6.67-33.18,1.67-10.29,6.12-19.16,13.89-26.11,7.17-6.41,11.73-13.99,12.49-23.72,1.43-18.3-13.22-34.04-31.67-34.6-19.78-.6-34.69,17.14-32.87,35.18.38,3.82,1.52,7.59,2.58,11.3,2.33,8.13-2.56,18.32-10.2,21.92-10.64,5.01-23.02-.77-26.51-11.27-8.63-26.01-4.45-49.63,12.93-70.83,7.54-9.2,17.2-15.54,28.92-20.37Z"/>
        <path class="cls-4" d="m223.58,411.25c-10.03,3.9-20.8-.81-24.79-10.84-3.93-9.88,1.04-21.23,10.96-25.06,9.69-3.74,20.78,1.41,24.71,11.32,3.83,9.65-1.6,21.68-10.88,24.58Z"/>
      </g>
      <g>
        <path class="cls-1" d="m282.99,137.39c17.72.85,34.61,6.4,49.01,18.67,10.68,9.1,18.33,20.25,23.02,33.48,7.4,20.85,5.7,41.1-4.23,60.68-9.11,17.97-23.37,30.31-42.13,37.55-4.23,1.63-5.73,3.95-5.83,8.5-.1,4.15.09,8.37-.59,12.44-1.63,9.74-11.01,16.92-21.01,16.54-10.37-.39-18.9-8-19.88-18.16-1.22-12.7-.44-25.13,6.21-36.55,5.75-9.87,13.79-17.19,24.46-21.24,9.85-3.74,17.49-9.7,22.09-19.35,8.65-18.15-.15-40.01-18.8-47.83-19.99-8.38-42.21,3.9-47.44,23.06-1.11,4.05-1.43,8.36-1.8,12.57-.81,9.23-9.82,17.72-19.04,18.4-12.85.95-23.24-9.83-22.68-21.94,1.39-29.99,14.95-52.51,41.05-67.35,11.32-6.44,23.7-9.13,37.57-9.47Z"/>
        <path class="cls-1" d="m282.07,388.8c-11.79.04-20.95-9.01-21.09-20.83-.14-11.64,9.4-21.31,21.05-21.32,11.38-.01,20.7,9.61,20.82,21.28.12,11.38-10.15,21.54-20.79,20.86Z"/>
      </g>
    </g>
  </g>
</svg>