<?xml version="1.0" encoding="UTF-8"?>
<svg id="Ebene_2" data-name="Ebene 2" xmlns="http://www.w3.org/2000/svg" viewBox="0 0 550 550">
  <defs>
    <style>
      .cls-1 {
        fill: #fff;
      }

      .cls-2 {
        fill: #ffca22;
      }
    </style>
  </defs>
  <g id="Hint">
    <circle class="cls-2" cx="275" cy="275" r="275"/>
    <g>
      <path class="cls-1" d="m274.91,380.17c-17.98,0-35.97.01-53.95,0-11.08,0-16.88-5.48-16.43-16.61.78-19.36-6.35-35-19.94-48.61-21.83-21.86-33.61-48.53-36.14-79.42-5.24-64.06,39.87-123.28,104.45-134.42,68.36-11.79,132.29,31.96,146.11,98.8,8.76,42.39-2.06,80.24-31.16,112.47-7.24,8.02-14.66,15.72-18.56,26.06-3,7.96-4.12,16.16-3.97,24.66.21,11.76-5.21,17.06-16.9,17.06-17.84,0-35.67,0-53.51,0Zm-.21-27.7c13.26,0,26.52,0,39.78,0,1.97,0,3.69.14,4.03-2.71,2.61-21.28,12.42-38.73,27.34-54.03,23.31-23.9,32.47-53.04,27.18-85.88-9.41-58.46-67.34-95.25-124.54-79.81-48.78,13.16-80.61,62.89-71.83,112.41,3.84,21.66,13.71,40.17,29.48,55.59,14.28,13.97,22.71,30.96,25.1,50.81.34,2.86,1.35,3.7,4.12,3.68,13.11-.11,26.23-.05,39.34-.05Z"/>
      <path class="cls-1" d="m304.5,436.77c-2.06,0-4.14.13-6.19-.03-5.4-.41-9.82-.53-11.63,6.67-1.34,5.33-6.89,7.5-12.42,7.38-5.81-.12-11.03-4.12-12.25-9.75-.83-3.81-2.65-4.45-6.06-4.35-7.21.23-14.44.1-21.66.06-8.3-.05-12.73-3.47-15.32-11.25-.45-1.34-1.96-2.83-3.3-3.28-7.31-2.43-11.89-8.15-11.15-14.46.89-7.62,6.71-12.81,14.89-12.82,36.99-.06,73.98-.06,110.96,0,8.22.01,13.99,5.13,14.91,12.79.76,6.31-3.83,12.05-11.11,14.5-1.43.48-2.97,2.19-3.45,3.66-2.29,7-6.85,10.67-14.29,10.85-3.98.09-7.96.02-11.94.02Z"/>
      <path class="cls-1" d="m270.49,249.87c5.97,0,11.11-.03,16.25,0,7.36.05,10.3,3.93,8,10.72-4.29,12.66-8.64,25.3-13.02,37.93-1.77,5.11-5.21,7.05-9.37,5.47-3.46-1.32-4.78-5.11-3.22-9.69,3.39-9.99,6.85-19.97,10.6-30.88-5.73,0-10.78,0-15.84,0-8.59-.02-11.2-3.62-8.4-11.61,4.22-12.06,8.46-24.12,12.71-36.18,1.17-3.31,3.13-5.73,7.01-5.57,3.4.15,5.53,2.18,6.12,5.35.3,1.6-.22,3.48-.78,5.09-2.76,8.06-5.67,16.07-8.5,24.11-.53,1.49-.9,3.04-1.55,5.26Z"/>
    </g>
  </g>
</svg>