<?xml version="1.0" encoding="UTF-8"?>
<svg id="Ebene_2" data-name="Ebene 2" xmlns="http://www.w3.org/2000/svg" viewBox="0 0 550 550">
  <defs>
    <style>
      .cls-1 {
        fill: #fff;
      }

      .cls-2 {
        fill: #c242c6;
      }
    </style>
  </defs>
  <g id="Reload">
    <g>
      <circle class="cls-2" cx="275" cy="275" r="275"/>
      <path class="cls-1" d="m275,118.92c-.62,0-1.25.01-1.87.02l-18.98-52.6c-1.47-4.07-7.11-4.35-8.98-.46l-50.48,104.91c-1.18,2.46-.12,5.41,2.36,6.55l105.84,48.5c3.93,1.8,8.09-2.02,6.62-6.09l-15.89-44.04c52.24,8.85,92.02,54.32,92.02,109.08,0,61.11-49.54,110.64-110.64,110.64s-110.64-49.54-110.64-110.64c0-34.69,15.97-65.65,40.96-85.94l-29.22-13.39c-2.48-1.14-3.55-4.09-2.36-6.55l18.13-37.68c-49.47,28.71-82.73,82.25-82.73,143.56,0,91.61,74.26,165.87,165.87,165.87s165.87-74.26,165.87-165.87-74.26-165.87-165.87-165.87Z"/>
    </g>
  </g>
</svg>