<?xml version="1.0" encoding="UTF-8"?>
<svg id="Ebene_2" data-name="Ebene 2" xmlns="http://www.w3.org/2000/svg" xmlns:xlink="http://www.w3.org/1999/xlink" viewBox="0 0 211.74 20.55">
  <defs>
    <style>
      .cls-1 {
        filter: url(#drop-shadow-1);
      }

      .cls-2 {
        fill: gray;
      }
    </style>
    <filter id="drop-shadow-1" filterUnits="userSpaceOnUse">
      <feOffset dx="7" dy="7"/>
      <feGaussianBlur result="blur" stdDeviation="5"/>
      <feFlood flood-color="#000" flood-opacity=".75"/>
      <feComposite in2="blur" operator="in"/>
      <feComposite in="SourceGraphic"/>
    </filter>
  </defs>
  <g id="Menu">
    <g id="Paths">
      <g class="cls-1">
        <path class="cls-2" d="M.07,18.84L5.03,2c.2-.61,.61-.92,1.24-.92s1,.26,1.16,.78l4.91,17.09c.04,.13,.06,.25,.06,.37,0,.34-.12,.63-.35,.87s-.5,.36-.8,.36c-.64,0-1.05-.3-1.23-.89l-.97-3.34H3.4l-1.07,3.58c-.03,.16-.15,.3-.37,.44-.22,.14-.45,.21-.71,.21-.36,0-.66-.12-.9-.37s-.35-.54-.35-.89c0-.15,.02-.3,.07-.45ZM6.25,6.78l-2.11,7.05h4.16l-2.05-7.05Z"/>
        <path class="cls-2" d="M29.31,20.55h-5.26c-.93,0-1.72-.28-2.37-.83l-2.39-2.08c-.76-.63-1.14-1.49-1.14-2.58v-3.21c-.04-1.04,.39-1.95,1.29-2.72l2.15-1.86c.69-.57,1.44-.85,2.23-.85h5.52c.34,0,.63,.12,.87,.36s.36,.53,.36,.87-.12,.64-.36,.88-.53,.35-.87,.35h-5.29c-.33,0-.65,.13-.95,.4l-1.98,1.68c-.32,.27-.48,.64-.48,1.1v3c0,.32,.13,.6,.38,.82l2.17,1.85c.27,.24,.63,.37,1.08,.37h5.04c.33,0,.62,.12,.86,.36s.37,.53,.37,.87-.12,.63-.36,.87-.53,.36-.87,.36Z"/>
        <path class="cls-2" d="M36.21,19.32V2.31c0-.33,.12-.62,.36-.85s.53-.35,.87-.35,.63,.12,.87,.36,.36,.53,.36,.87v6.21l1.98-1.29c.9-.57,1.7-.85,2.4-.85h1.52c1.01,0,1.87,.36,2.59,1.08s1.1,1.59,1.13,2.61l.31,9.21c0,.34-.11,.63-.35,.87s-.54,.36-.88,.36-.63-.12-.86-.37-.36-.53-.37-.86l-.31-9.24c0-.33-.14-.62-.38-.86s-.54-.37-.88-.37h-1.38c-.31,0-.65,.12-1.03,.37l-3.5,2.29v7.82c0,.34-.12,.63-.36,.87s-.53,.36-.87,.36-.63-.12-.87-.36-.36-.53-.36-.87Z"/>
        <path class="cls-2" d="M64.29,20.52h-7.5c-.34,0-.63-.12-.87-.36s-.36-.53-.36-.87,.12-.62,.36-.86,.53-.37,.87-.37h2.52V8.88h-2.49c-.34,0-.63-.12-.87-.37s-.36-.53-.36-.86,.12-.64,.36-.89,.53-.37,.87-.37h3.75c.34,0,.63,.12,.87,.37s.36,.54,.36,.89v10.42h2.46c.34,0,.64,.12,.89,.36s.37,.53,.37,.87-.12,.63-.37,.87-.53,.36-.86,.36ZM59.28,0h1.29c.34,0,.63,.12,.87,.36s.36,.53,.36,.87v1.05c0,.34-.12,.64-.36,.89s-.53,.37-.87,.37h-1.32c-.35,0-.65-.13-.89-.38s-.35-.54-.34-.85l.03-1.08c0-.34,.12-.63,.36-.87s.53-.36,.87-.36Z"/>
        <path class="cls-2" d="M84.87,11.04v2.97c0,.33-.12,.62-.37,.86s-.53,.37-.86,.37h-8.7v.72c0,.42,.18,.78,.54,1.07l.72,.6c.39,.3,.76,.45,1.11,.45h6.33c.33,0,.62,.12,.86,.36s.37,.53,.37,.87-.12,.62-.37,.86-.54,.37-.86,.37h-6.49c-.43,0-.88-.09-1.35-.27s-.82-.37-1.05-.56l-1.1-.97c-.34-.27-.63-.65-.86-1.14s-.34-.94-.34-1.35v-5.64c0-.32,.12-.76,.37-1.3s.56-.97,.94-1.27l1.03-.81c.67-.55,1.42-.82,2.24-.82h3.46c.87,0,1.69,.36,2.46,1.08l.92,.88c.66,.6,1,1.48,1,2.67Zm-9.9-.19v1.9h7.47v-1.71c0-.46-.14-.81-.42-1.05l-.72-.63c-.37-.3-.7-.45-1-.45h-3.09c-.38,0-.73,.13-1.04,.4l-.72,.6c-.32,.24-.48,.56-.48,.95Z"/>
        <path class="cls-2" d="M103.01,7.65v2.34l-4.27,9.7c-.27,.57-.63,.86-1.08,.86h-1.58c-.58,0-1-.3-1.26-.9l-4.24-9.64v-2.37c0-.34,.12-.63,.36-.87s.53-.36,.87-.36,.63,.12,.87,.36,.36,.53,.36,.87v1.89s3.76,8.44,3.76,8.44l3.73-8.47v-1.86c0-.34,.12-.63,.37-.87s.54-.36,.89-.36,.63,.12,.87,.36,.36,.53,.36,.87Z"/>
        <path class="cls-2" d="M121.11,11.04v2.97c0,.33-.12,.62-.37,.86s-.53,.37-.86,.37h-8.7v.72c0,.42,.18,.78,.54,1.07l.72,.6c.39,.3,.76,.45,1.11,.45h6.33c.33,0,.62,.12,.86,.36s.37,.53,.37,.87-.12,.62-.37,.86-.54,.37-.86,.37h-6.49c-.43,0-.88-.09-1.35-.27s-.82-.37-1.05-.56l-1.1-.97c-.34-.27-.63-.65-.86-1.14s-.34-.94-.34-1.35v-5.64c0-.32,.12-.76,.37-1.3s.56-.97,.94-1.27l1.03-.81c.67-.55,1.42-.82,2.24-.82h3.46c.87,0,1.69,.36,2.46,1.08l.92,.88c.66,.6,1,1.48,1,2.67Zm-9.9-.19v1.9h7.47v-1.71c0-.46-.14-.81-.42-1.05l-.72-.63c-.37-.3-.7-.45-1-.45h-3.09c-.38,0-.73,.13-1.04,.4l-.72,.6c-.32,.24-.48,.56-.48,.95Z"/>
        <path class="cls-2" d="M126.53,19.32V7.65c0-.34,.12-.63,.36-.87s.53-.36,.87-.36c.63,0,1.04,.31,1.2,.94,.68-.64,1.44-.97,2.28-.97,.98,0,1.79,.42,2.43,1.26,.78-.84,1.64-1.26,2.57-1.26,.76,0,1.42,.27,1.98,.81s.86,1.23,.9,2.07l.35,10.05c0,.33-.12,.62-.37,.86s-.53,.37-.86,.37-.63-.12-.88-.37-.37-.53-.38-.86l-.29-9.65c-.02-.53-.18-.79-.48-.79-.17,0-.34,.07-.51,.22l-1.46,1.23v8.99c0,.33-.12,.62-.36,.85s-.53,.35-.87,.35-.62-.12-.86-.36-.37-.53-.37-.87V9.51c0-.42-.18-.63-.54-.63-.17,0-.33,.06-.48,.19l-1.76,1.49v8.76c0,.33-.12,.62-.35,.86s-.52,.37-.85,.37-.64-.12-.89-.37-.37-.53-.37-.86Z"/>
        <path class="cls-2" d="M157.35,11.04v2.97c0,.33-.12,.62-.37,.86s-.53,.37-.86,.37h-8.7v.72c0,.42,.18,.78,.54,1.07l.72,.6c.39,.3,.76,.45,1.11,.45h6.33c.33,0,.62,.12,.86,.36s.37,.53,.37,.87-.12,.62-.37,.86-.54,.37-.86,.37h-6.49c-.43,0-.88-.09-1.35-.27s-.82-.37-1.05-.56l-1.1-.97c-.34-.27-.63-.65-.86-1.14s-.34-.94-.34-1.35v-5.64c0-.32,.12-.76,.37-1.3s.56-.97,.94-1.27l1.03-.81c.67-.55,1.42-.82,2.24-.82h3.46c.87,0,1.69,.36,2.46,1.08l.92,.88c.66,.6,1,1.48,1,2.67Zm-9.9-.19v1.9h7.47v-1.71c0-.46-.14-.81-.42-1.05l-.72-.63c-.37-.3-.7-.45-1-.45h-3.09c-.38,0-.73,.13-1.04,.4l-.72,.6c-.32,.24-.48,.56-.48,.95Z"/>
        <path class="cls-2" d="M168.9,9.27l-3.36,2.18v7.87c0,.33-.12,.62-.37,.86s-.53,.37-.86,.37-.62-.12-.86-.37-.37-.53-.37-.86V7.65c0-.34,.12-.64,.36-.89s.53-.37,.87-.37,.62,.12,.86,.37,.37,.54,.37,.89v.82l2.25-1.36c.75-.48,1.6-.72,2.55-.72h1.14c.98,0,1.82,.35,2.54,1.04s1.09,1.55,1.13,2.56l.34,9.33c0,.33-.11,.62-.35,.86s-.54,.37-.88,.37c-.32,0-.61-.11-.85-.33s-.37-.52-.38-.9l-.37-9.18c-.03-.86-.48-1.29-1.35-1.29h-1.2c-.37,0-.77,.14-1.2,.42Z"/>
        <path class="cls-2" d="M189.84,20.55h-2.46c-1.02,0-1.89-.36-2.62-1.08s-1.1-1.59-1.1-2.61v-7.98h-1.26c-.34,0-.63-.12-.87-.35s-.36-.53-.36-.88,.12-.63,.36-.87,.53-.36,.87-.36h1.29V3.4c0-.34,.12-.63,.36-.87s.53-.36,.87-.36c.32,0,.61,.12,.86,.37s.37,.53,.37,.86v3.02h4.95c.33,0,.62,.12,.86,.37s.37,.53,.37,.86-.12,.63-.37,.87-.53,.36-.86,.36h-4.98v7.98c0,.33,.12,.62,.37,.86s.54,.37,.89,.37h2.4c.65,0,1.09-.35,1.3-1.06s.63-1.06,1.25-1.06c.36,0,.66,.12,.89,.36s.34,.54,.34,.9c0,.74-.35,1.48-1.05,2.22s-1.59,1.11-2.67,1.11Z"/>
        <path class="cls-2" d="M202.76,6.42h5.64c.88,0,1.66,.26,2.33,.78s1.01,1.03,1.01,1.53c0,.35-.12,.64-.37,.86s-.53,.34-.83,.34c-.39,0-.75-.18-1.07-.53s-.66-.53-1.01-.53h-5.57c-.55,0-.82,.23-.82,.68,0,.32,.18,.56,.55,.73l6.54,2.91c.66,.29,1.21,.76,1.63,1.41s.64,1.37,.64,2.16c0,1.05-.37,1.95-1.12,2.68s-1.59,1.1-2.54,1.1h-4.98c-.86,0-1.66-.26-2.39-.78s-1.11-1.02-1.11-1.51c0-.32,.12-.61,.36-.86s.55-.37,.93-.37c.31,0,.65,.18,1,.53s.87,.53,1.54,.53h4.58c.36,0,.66-.14,.91-.42s.37-.6,.37-.96c0-.56-.27-.96-.82-1.2l-6.61-2.97c-.63-.28-1.12-.69-1.46-1.23s-.51-1.08-.51-1.64c0-.88,.31-1.64,.92-2.29s1.36-.97,2.26-.97Z"/>
      </g>
    </g>
  </g>
</svg>