<?xml version="1.0" encoding="UTF-8"?>
<svg id="Ebene_2" data-name="Ebene 2" xmlns="http://www.w3.org/2000/svg" xmlns:xlink="http://www.w3.org/1999/xlink" viewBox="0 0 66.72 19.47">
  <defs>
    <style>
      .cls-1 {
        filter: url(#drop-shadow-1);
      }

      .cls-2 {
        fill: gray;
      }
    </style>
    <filter id="drop-shadow-1" filterUnits="userSpaceOnUse">
      <feOffset dx="7" dy="7"/>
      <feGaussianBlur result="blur" stdDeviation="5"/>
      <feFlood flood-color="#000" flood-opacity=".75"/>
      <feComposite in2="blur" operator="in"/>
      <feComposite in="SourceGraphic"/>
    </filter>
  </defs>
  <g id="Menu">
    <g id="Paths">
      <g class="cls-1">
        <path class="cls-2" d="M6.69,17.01h4.44c.34,0,.64,.12,.89,.36,.25,.24,.37,.53,.37,.87s-.12,.63-.37,.87-.54,.36-.89,.36H6.53c-.59,0-1.19-.19-1.82-.56s-1.06-.79-1.3-1.25L.57,12.17c-.38-.79-.57-1.6-.57-2.43,0-.92,.18-1.71,.54-2.39L3.41,1.92c.27-.51,.7-.95,1.27-1.34s1.13-.58,1.67-.58h4.86c.34,0,.63,.12,.87,.37s.36,.53,.36,.86-.12,.64-.36,.89c-.24,.25-.53,.37-.87,.37H6.54c-.39,0-.71,.23-.95,.69l-2.73,5.1c-.22,.4-.32,.87-.32,1.42,0,.58,.11,1.09,.35,1.52l2.61,5.01c.24,.52,.64,.78,1.2,.77Z"/>
        <path class="cls-2" d="M18.03,3.35V.03h12.42V3.38c0,.34-.12,.63-.37,.87s-.53,.36-.86,.36-.64-.12-.89-.37-.37-.53-.37-.86v-.89h-2.49v15.75c0,.34-.12,.63-.37,.87s-.53,.36-.86,.36c-.35,0-.65-.12-.89-.36s-.37-.53-.37-.87V2.49h-2.49v.86c0,.34-.12,.63-.36,.87s-.53,.36-.87,.36-.63-.12-.87-.36-.36-.53-.36-.87Z"/>
        <path class="cls-2" d="M36.18,18.24V0h11.16c.32,0,.61,.12,.86,.37s.37,.53,.37,.86-.12,.64-.37,.89-.53,.37-.86,.37h-8.7v3.87h6.24c.34,0,.63,.12,.87,.36s.36,.53,.36,.87-.12,.63-.36,.87-.53,.36-.87,.36h-6.24v9.42c0,.34-.12,.63-.36,.87s-.53,.36-.87,.36-.63-.12-.87-.36-.36-.53-.36-.87Z"/>
        <path class="cls-2" d="M57.74,5.33h5.64c.88,0,1.66,.26,2.33,.78s1.01,1.03,1.01,1.53c0,.35-.12,.64-.37,.86s-.52,.34-.83,.34c-.39,0-.75-.18-1.07-.53s-.66-.53-1.01-.53h-5.57c-.55,0-.82,.23-.82,.68,0,.32,.18,.56,.55,.73l6.54,2.91c.66,.29,1.21,.76,1.63,1.41s.64,1.37,.64,2.16c0,1.05-.37,1.95-1.12,2.68s-1.59,1.1-2.54,1.1h-4.98c-.86,0-1.66-.26-2.4-.78s-1.11-1.02-1.11-1.51c0-.32,.12-.61,.36-.86s.55-.37,.93-.37c.31,0,.65,.18,1,.53s.87,.53,1.55,.53h4.58c.36,0,.66-.14,.91-.42s.37-.6,.37-.96c0-.56-.27-.96-.82-1.2l-6.61-2.97c-.63-.28-1.12-.69-1.46-1.23s-.51-1.08-.51-1.64c0-.88,.31-1.64,.92-2.29s1.36-.97,2.26-.97Z"/>
      </g>
    </g>
  </g>
</svg>