<?xml version="1.0" encoding="UTF-8"?>
<svg id="Ebene_2" data-name="Ebene 2" xmlns="http://www.w3.org/2000/svg" xmlns:xlink="http://www.w3.org/1999/xlink" viewBox="0 0 139.29 25.83">
  <defs>
    <style>
      .cls-1 {
        filter: url(#drop-shadow-1);
      }

      .cls-2 {
        fill: gray;
      }
    </style>
    <filter id="drop-shadow-1" filterUnits="userSpaceOnUse">
      <feOffset dx="7" dy="7"/>
      <feGaussianBlur result="blur" stdDeviation="5"/>
      <feFlood flood-color="#000" flood-opacity=".75"/>
      <feComposite in2="blur" operator="in"/>
      <feComposite in="SourceGraphic"/>
    </filter>
  </defs>
  <g id="Menu">
    <g id="Paths">
      <g class="cls-1">
        <path class="cls-2" d="M2.8,1.08h6.41c.78,0,1.52,.33,2.22,.99s1.05,1.46,1.05,2.4c0,.35-.12,.65-.37,.89s-.52,.37-.83,.37c-.42,0-.71-.1-.86-.29s-.31-.54-.45-1.06c-.14-.52-.46-.78-.95-.78H2.93c-.29,0-.44,.09-.44,.28,0,.12,.05,.26,.18,.41L11.82,15.97c.44,.57,.66,1.17,.66,1.82,0,.73-.27,1.38-.8,1.93s-1.12,.83-1.78,.83H3.27c-.88,0-1.64-.33-2.29-1s-.97-1.4-.97-2.2c0-.92,.43-1.38,1.29-1.38,.33,0,.62,.12,.85,.36s.35,.52,.35,.84c0,.26,.09,.48,.27,.66s.41,.26,.68,.26h6.12c.26,0,.4-.1,.4-.31,0-.1-.05-.23-.18-.38L.65,5.73c-.43-.56-.65-1.16-.65-1.82,0-.76,.27-1.42,.82-1.98,.55-.56,1.21-.84,1.98-.84Z"/>
        <path class="cls-2" d="M30.54,11.04v2.97c0,.33-.12,.62-.37,.86s-.53,.37-.86,.37h-8.7v.72c0,.42,.18,.78,.54,1.07l.72,.6c.39,.3,.76,.45,1.11,.45h6.33c.33,0,.62,.12,.86,.36s.37,.53,.37,.87-.12,.62-.37,.86-.53,.37-.86,.37h-6.49c-.43,0-.88-.09-1.36-.27s-.82-.37-1.05-.56l-1.1-.97c-.34-.27-.63-.65-.86-1.14s-.34-.94-.34-1.35v-5.64c0-.32,.12-.76,.37-1.3s.56-.97,.95-1.27l1.03-.81c.67-.55,1.42-.82,2.24-.82h3.46c.87,0,1.69,.36,2.46,1.08l.92,.88c.66,.6,1,1.48,1,2.67Zm-9.9-.19v1.9h7.47v-1.71c0-.46-.14-.81-.42-1.05l-.72-.63c-.37-.3-.7-.45-1-.45h-3.09c-.38,0-.73,.13-1.04,.4l-.72,.6c-.32,.24-.48,.56-.48,.95Z"/>
        <path class="cls-2" d="M44.91,20.55h-2.46c-1.02,0-1.89-.36-2.62-1.08s-1.1-1.59-1.1-2.61v-7.98h-1.26c-.34,0-.63-.12-.87-.35s-.36-.53-.36-.88,.12-.63,.36-.87,.53-.36,.87-.36h1.29V3.4c0-.34,.12-.63,.36-.87s.53-.36,.87-.36c.32,0,.61,.12,.86,.37s.37,.53,.37,.86v3.02h4.95c.33,0,.62,.12,.86,.37s.37,.53,.37,.86-.12,.63-.37,.87-.53,.36-.86,.36h-4.98v7.98c0,.33,.12,.62,.37,.86s.54,.37,.89,.37h2.4c.65,0,1.09-.35,1.3-1.06s.63-1.06,1.25-1.06c.36,0,.66,.12,.89,.36s.34,.54,.34,.9c0,.74-.35,1.48-1.05,2.22s-1.59,1.11-2.67,1.11Z"/>
        <path class="cls-2" d="M63.03,20.55h-2.46c-1.02,0-1.89-.36-2.62-1.08s-1.1-1.59-1.1-2.61v-7.98h-1.26c-.34,0-.63-.12-.87-.35s-.36-.53-.36-.88,.12-.63,.36-.87,.53-.36,.87-.36h1.29V3.4c0-.34,.12-.63,.36-.87s.53-.36,.87-.36c.32,0,.61,.12,.86,.37s.37,.53,.37,.86v3.02h4.95c.33,0,.62,.12,.86,.37s.37,.53,.37,.86-.12,.63-.37,.87-.53,.36-.86,.36h-4.98v7.98c0,.33,.12,.62,.37,.86s.54,.37,.89,.37h2.4c.65,0,1.09-.35,1.3-1.06s.63-1.06,1.25-1.06c.36,0,.66,.12,.89,.36s.34,.54,.34,.9c0,.74-.35,1.48-1.05,2.22s-1.59,1.11-2.67,1.11Z"/>
        <path class="cls-2" d="M82.44,20.52h-7.5c-.34,0-.63-.12-.87-.36s-.36-.53-.36-.87,.12-.62,.36-.86,.53-.37,.87-.37h2.52V8.88h-2.49c-.34,0-.63-.12-.87-.37s-.36-.53-.36-.86,.12-.64,.36-.89,.53-.37,.87-.37h3.75c.34,0,.63,.12,.87,.37s.36,.54,.36,.89v10.42h2.46c.34,0,.64,.12,.89,.36s.37,.53,.37,.87-.12,.63-.37,.87-.53,.36-.86,.36ZM77.43,0h1.29c.34,0,.63,.12,.87,.36s.36,.53,.36,.87v1.05c0,.34-.12,.64-.36,.89s-.53,.37-.87,.37h-1.32c-.35,0-.65-.13-.89-.38s-.35-.54-.34-.85l.03-1.08c0-.34,.12-.63,.36-.87s.53-.36,.87-.36Z"/>
        <path class="cls-2" d="M96.45,9.27l-3.36,2.18v7.87c0,.33-.12,.62-.37,.86s-.53,.37-.86,.37-.62-.12-.86-.37-.37-.53-.37-.86V7.65c0-.34,.12-.64,.36-.89s.53-.37,.87-.37,.62,.12,.86,.37,.37,.54,.37,.89v.82l2.25-1.36c.75-.48,1.6-.72,2.55-.72h1.14c.98,0,1.82,.35,2.54,1.04s1.09,1.55,1.13,2.56l.34,9.33c0,.33-.11,.62-.35,.86s-.54,.37-.88,.37c-.32,0-.61-.11-.85-.33s-.37-.52-.38-.9l-.37-9.18c-.03-.86-.48-1.29-1.35-1.29h-1.2c-.37,0-.77,.14-1.2,.42Z"/>
        <path class="cls-2" d="M116.48,25.83h-5.33c-.34,0-.63-.12-.87-.35s-.36-.53-.36-.88,.12-.63,.36-.86,.53-.35,.87-.35h5.33c.32,0,.62-.12,.91-.37l.83-.72c.28-.21,.42-.5,.42-.85v-3.75c-1.15,1.16-2.28,1.74-3.37,1.74h-1.89c-.98,0-1.86-.34-2.64-1.01l-.92-.82c-.3-.25-.56-.62-.78-1.11s-.33-.97-.33-1.44v-4.07c0-.58,.11-1.12,.33-1.64s.48-.9,.78-1.16l1.01-.86c.72-.62,1.57-.94,2.55-.94h1.77c.97,0,1.85,.34,2.64,1.03l.85,.72-.03-.48c0-.33,.12-.62,.37-.86s.53-.37,.86-.37,.64,.12,.89,.36,.37,.53,.37,.87v13.8c0,1.04-.42,1.94-1.26,2.68l-1,.86c-.25,.22-.61,.42-1.08,.59s-.9,.25-1.3,.25Zm-1.41-16.98h-1.66c-.36,0-.71,.14-1.04,.42l-.76,.63c-.29,.24-.44,.58-.44,1v4.1c0,.33,.16,.64,.48,.94l.81,.72c.25,.21,.52,.32,.81,.32h2.01c.29,0,.62-.15,.97-.44l1.95-1.66c.3-.26,.45-.59,.45-.97v-1.86c0-.45-.17-.82-.51-1.1l-2.01-1.71c-.28-.26-.63-.4-1.05-.4Z"/>
        <path class="cls-2" d="M130.31,6.42h5.64c.88,0,1.66,.26,2.33,.78s1.01,1.03,1.01,1.53c0,.35-.12,.64-.37,.86s-.52,.34-.83,.34c-.39,0-.75-.18-1.07-.53s-.66-.53-1.01-.53h-5.57c-.55,0-.82,.23-.82,.68,0,.32,.18,.56,.55,.73l6.54,2.91c.66,.29,1.21,.76,1.63,1.41s.64,1.37,.64,2.16c0,1.05-.37,1.95-1.12,2.68s-1.59,1.1-2.54,1.1h-4.98c-.86,0-1.66-.26-2.4-.78s-1.11-1.02-1.11-1.51c0-.32,.12-.61,.36-.86s.55-.37,.93-.37c.31,0,.65,.18,1,.53s.87,.53,1.55,.53h4.58c.36,0,.66-.14,.91-.42s.37-.6,.37-.96c0-.56-.27-.96-.82-1.2l-6.61-2.97c-.63-.28-1.12-.69-1.46-1.23s-.51-1.08-.51-1.64c0-.88,.3-1.64,.92-2.29s1.37-.97,2.26-.97Z"/>
      </g>
    </g>
  </g>
</svg>