<?xml version="1.0" encoding="UTF-8"?>
<svg id="Ebene_2" data-name="Ebene 2" xmlns="http://www.w3.org/2000/svg" xmlns:xlink="http://www.w3.org/1999/xlink" viewBox="0 0 138.03 20.55">
  <defs>
    <style>
      .cls-1 {
        filter: url(#drop-shadow-1);
      }

      .cls-2 {
        fill: gray;
      }
    </style>
    <filter id="drop-shadow-1" filterUnits="userSpaceOnUse">
      <feOffset dx="7" dy="7"/>
      <feGaussianBlur result="blur" stdDeviation="5"/>
      <feFlood flood-color="#000" flood-opacity=".75"/>
      <feComposite in2="blur" operator="in"/>
      <feComposite in="SourceGraphic"/>
    </filter>
  </defs>
  <g id="Menu">
    <g id="Paths">
      <g class="cls-1">
        <path class="cls-2" d="M0,4.44V1.11H12.42v3.35c0,.34-.12,.63-.37,.87s-.53,.36-.86,.36-.64-.12-.89-.37-.37-.53-.37-.86v-.89h-2.49v15.75c0,.34-.12,.63-.37,.87s-.53,.36-.86,.36c-.35,0-.65-.12-.89-.36s-.37-.53-.37-.87V3.57H2.46v.86c0,.34-.12,.63-.36,.87s-.53,.36-.87,.36-.63-.12-.87-.36-.36-.53-.36-.87Z"/>
        <path class="cls-2" d="M24,18.06l4.14-2.64V7.65c0-.34,.12-.64,.36-.89s.53-.37,.87-.37,.63,.12,.87,.37,.36,.54,.36,.89v11.67c0,.33-.12,.62-.37,.86s-.53,.37-.86,.37-.62-.12-.86-.37-.37-.53-.37-.86v-.97l-2.13,1.39c-.84,.54-1.69,.81-2.54,.81h-1.14c-1,0-1.87-.35-2.59-1.05-.72-.7-1.11-1.56-1.16-2.58l-.37-9.27c-.02-.32,.1-.61,.34-.86s.54-.37,.89-.37,.62,.12,.86,.37,.36,.53,.37,.86l.34,9.1c.03,.88,.53,1.32,1.51,1.32h1.49Z"/>
        <path class="cls-2" d="M44.91,20.55h-2.46c-1.02,0-1.89-.36-2.62-1.08s-1.1-1.59-1.1-2.61v-7.98h-1.26c-.34,0-.63-.12-.87-.35s-.36-.53-.36-.88,.12-.63,.36-.87,.53-.36,.87-.36h1.29V3.4c0-.34,.12-.63,.36-.87s.53-.36,.87-.36c.32,0,.61,.12,.86,.37s.37,.53,.37,.86v3.02h4.95c.33,0,.62,.12,.86,.37s.37,.53,.37,.86-.12,.63-.37,.87-.53,.36-.86,.36h-4.98v7.98c0,.33,.12,.62,.37,.86s.54,.37,.89,.37h2.4c.65,0,1.09-.35,1.3-1.06s.63-1.06,1.25-1.06c.36,0,.66,.12,.89,.36s.34,.54,.34,.9c0,.74-.35,1.48-1.05,2.22s-1.59,1.11-2.67,1.11Z"/>
        <path class="cls-2" d="M66.78,10.85v5.2c0,1.1-.52,2.12-1.56,3.06s-2.11,1.41-3.22,1.41h-2.89c-1.12,0-2.2-.48-3.22-1.43s-1.54-1.97-1.54-3.04v-5.2c0-1.07,.5-2.09,1.5-3.04s2.09-1.43,3.26-1.43h2.89c1.1-.02,2.18,.44,3.22,1.38s1.56,1.97,1.56,3.09Zm-9.93,.1v4.98c0,.45,.16,.81,.48,1.07l.92,.79c.21,.18,.49,.26,.86,.26h2.86c.42,0,.8-.15,1.14-.45l.75-.66c.3-.23,.45-.56,.45-.98v-4.98c0-.49-.15-.85-.45-1.08l-.86-.69c-.29-.24-.63-.37-1.03-.37h-2.55c-.56,0-.99,.13-1.29,.4l-.83,.72c-.3,.25-.45,.59-.45,1Z"/>
        <path class="cls-2" d="M72.51,19.32V7.65c0-.34,.12-.64,.36-.89s.53-.37,.87-.37,.63,.12,.87,.37,.36,.54,.36,.89v1.54l2.01-1.71c.83-.7,1.64-1.05,2.43-1.05h1.8c1.02,0,1.88,.36,2.61,1.08s1.08,1.59,1.08,2.61v.66c0,.35-.12,.65-.36,.89s-.53,.37-.87,.37-.63-.12-.87-.36-.36-.53-.36-.87v-.69c0-.34-.12-.63-.36-.87s-.53-.36-.87-.36h-1.6c-.34,0-.72,.18-1.14,.54l-3.5,3.03v6.87c0,.34-.12,.63-.37,.87s-.53,.36-.86,.36-.63-.12-.87-.36-.36-.53-.36-.87Z"/>
        <path class="cls-2" d="M100.56,20.52h-7.5c-.34,0-.63-.12-.87-.36s-.36-.53-.36-.87,.12-.62,.36-.86,.53-.37,.87-.37h2.52V8.88h-2.49c-.34,0-.63-.12-.87-.37s-.36-.53-.36-.86,.12-.64,.36-.89,.53-.37,.87-.37h3.75c.34,0,.63,.12,.87,.37s.36,.54,.36,.89v10.42h2.46c.34,0,.64,.12,.89,.36s.37,.53,.37,.87-.12,.63-.37,.87-.53,.36-.86,.36ZM95.55,0h1.29c.34,0,.63,.12,.87,.36s.36,.53,.36,.87v1.05c0,.34-.12,.64-.36,.89s-.53,.37-.87,.37h-1.32c-.35,0-.65-.13-.89-.38s-.35-.54-.34-.85l.03-1.08c0-.34,.12-.63,.36-.87s.53-.36,.87-.36Z"/>
        <path class="cls-2" d="M112.42,11.67h4.83c.26,0,.65,.06,1.14,.18l-.03-1.74c0-.34-.12-.63-.36-.87-.24-.24-.53-.36-.87-.36h-4.68c-.33,0-.62-.12-.87-.37-.25-.24-.37-.53-.37-.86s.12-.63,.36-.87c.24-.24,.53-.36,.87-.36h4.68c1.02,0,1.89,.36,2.6,1.07s1.09,1.59,1.12,2.62l.31,9.21c0,.34-.12,.63-.37,.87s-.53,.36-.86,.36c-.35,0-.65-.12-.89-.36s-.37-.53-.37-.87l-2.08,1.23h-4.17c-1.04,0-1.92-.36-2.64-1.08s-1.09-1.6-1.09-2.64v-1.44c0-1.03,.36-1.9,1.09-2.63s1.61-1.09,2.63-1.09Zm6.15,4.79l-.07-1.04c-.01-.35-.13-.64-.37-.88s-.52-.35-.87-.35h-4.85c-.34,0-.63,.12-.87,.36s-.36,.53-.36,.87v1.38c0,.33,.12,.62,.37,.86,.25,.24,.53,.37,.87,.37h3.48l2.68-1.57Z"/>
        <path class="cls-2" d="M136.8,20.55h-7.44c-.34,0-.63-.12-.87-.37s-.36-.54-.36-.89,.12-.62,.36-.86,.53-.37,.87-.37h2.46V3.54h-2.49c-.34,0-.63-.12-.87-.36s-.36-.53-.36-.87,.12-.63,.36-.87,.53-.36,.87-.36h3.75c.33,0,.62,.12,.86,.37s.37,.53,.37,.86v15.75h2.49c.33,0,.62,.12,.86,.37s.37,.53,.37,.86-.12,.64-.36,.89-.53,.37-.87,.37Z"/>
      </g>
    </g>
  </g>
</svg>