<?xml version="1.0" encoding="UTF-8"?>
<svg id="Ebene_2" data-name="Ebene 2" xmlns="http://www.w3.org/2000/svg" xmlns:xlink="http://www.w3.org/1999/xlink" viewBox="0 0 414.4 97.13">
  <defs>
    <style>
      .cls-1 {
        fill: #f79e00;
      }

      .cls-2 {
        filter: url(#drop-shadow-1);
      }

      .cls-3 {
        filter: url(#drop-shadow-2);
      }

      .cls-4 {
        fill: #9b9b9b;
      }
    </style>
    <filter id="drop-shadow-1" filterUnits="userSpaceOnUse">
      <feOffset dx="7" dy="7"/>
      <feGaussianBlur result="blur" stdDeviation="5"/>
      <feFlood flood-color="#000" flood-opacity=".75"/>
      <feComposite in2="blur" operator="in"/>
      <feComposite in="SourceGraphic"/>
    </filter>
    <filter id="drop-shadow-2" filterUnits="userSpaceOnUse">
      <feOffset dx="7" dy="7"/>
      <feGaussianBlur result="blur-2" stdDeviation="5"/>
      <feFlood flood-color="#000" flood-opacity=".75"/>
      <feComposite in2="blur-2" operator="in"/>
      <feComposite in="SourceGraphic"/>
    </filter>
  </defs>
  <g id="Title">
    <g id="Logo_Path" data-name="Logo Path">
      <g>
        <g class="cls-2">
          <path class="cls-1" d="M.04,87.13v-28.04H17.21c.5,0,.94,.19,1.32,.56,.38,.38,.57,.82,.57,1.33s-.19,.98-.56,1.36c-.38,.38-.82,.57-1.33,.57H3.83v5.95H13.42c.53,0,.97,.18,1.34,.55,.37,.37,.55,.81,.55,1.34s-.18,.97-.55,1.34-.81,.55-1.34,.55H3.83v14.48c0,.53-.18,.97-.55,1.34s-.81,.55-1.34,.55-.97-.18-1.34-.55c-.37-.37-.55-.81-.55-1.34Z"/>
          <path class="cls-1" d="M38.56,88.98h-11.53c-.53,0-.97-.18-1.34-.55-.37-.37-.55-.81-.55-1.34s.18-.95,.55-1.33c.37-.38,.81-.56,1.34-.56h3.87v-14.12h-3.83c-.53,0-.97-.19-1.34-.56-.37-.38-.55-.82-.55-1.33s.18-.98,.55-1.36c.37-.38,.81-.57,1.34-.57h5.77c.53,0,.97,.19,1.34,.57,.37,.38,.55,.84,.55,1.36v16.01h3.78c.53,0,.98,.18,1.36,.55,.38,.37,.57,.81,.57,1.34s-.19,.97-.56,1.34-.82,.55-1.33,.55Zm-7.7-31.56h1.98c.53,0,.97,.18,1.34,.55,.37,.37,.55,.81,.55,1.34v1.62c0,.53-.18,.98-.55,1.36-.37,.38-.81,.57-1.34,.57h-2.03c-.54,0-1-.19-1.36-.59-.37-.39-.54-.83-.53-1.31l.04-1.67c0-.53,.18-.97,.55-1.34s.81-.55,1.34-.55Z"/>
          <path class="cls-1" d="M55.49,71.68l-5.17,3.36v12.1c0,.51-.19,.95-.56,1.33-.38,.38-.82,.56-1.33,.56s-.95-.19-1.33-.56c-.38-.38-.56-.82-.56-1.33v-17.95c0-.53,.18-.98,.55-1.36,.37-.38,.81-.57,1.34-.57s.95,.19,1.33,.57c.38,.38,.56,.84,.56,1.36v1.26l3.45-2.09c1.16-.74,2.47-1.1,3.92-1.1h1.76c1.5,0,2.8,.53,3.9,1.6,1.1,1.07,1.68,2.38,1.74,3.94l.52,14.35c.02,.51-.17,.95-.54,1.33s-.83,.56-1.35,.56c-.5,0-.93-.17-1.31-.51s-.57-.8-.59-1.39l-.56-14.12c-.05-1.32-.74-1.98-2.08-1.98h-1.85c-.57,0-1.19,.22-1.85,.65Z"/>
          <path class="cls-1" d="M85.02,69.93v-8.94c0-.53,.18-.97,.54-1.34,.36-.37,.8-.55,1.31-.55s.98,.18,1.36,.55c.38,.37,.57,.81,.57,1.34v26.15c0,.53-.19,.97-.56,1.34-.38,.37-.82,.55-1.33,.55-.54,0-.99-.18-1.35-.55-.36-.37-.54-.81-.54-1.34v-.83c-1.85,1.82-3.57,2.73-5.18,2.73h-3.22c-1.29,0-2.58-.56-3.87-1.67l-1.58-1.33c-.36-.35-.7-.92-1.02-1.73-.32-.81-.48-1.57-.48-2.27v-7.7c0-.86,.18-1.69,.54-2.49s.78-1.41,1.26-1.81l1.55-1.33c1.11-.96,2.42-1.44,3.92-1.44h2.73c1.49,0,2.84,.53,4.05,1.58l1.31,1.1Zm-5.5,1.15h-2.64c-.56,0-1.06,.2-1.51,.61l-1.22,1.06c-.42,.38-.63,.86-.63,1.44v8.02c0,.53,.25,1,.74,1.42l1.24,1.06c.39,.35,.8,.52,1.24,.52h3.09c.41,0,.89-.23,1.44-.7l3-2.48c.5-.44,.74-.98,.74-1.62v-4.1c0-.92-.26-1.59-.79-2.03l-3.09-2.64c-.41-.38-.95-.56-1.62-.56Z"/>
          <path class="cls-1" d="M127.77,74.66v12.47c0,.53-.19,.97-.56,1.34-.38,.37-.82,.55-1.33,.55-.54,0-1-.18-1.37-.55s-.56-.81-.56-1.34v-12.46l-7.61-9.64v-4.01c0-.54,.18-1,.55-1.37,.37-.38,.81-.56,1.34-.56s.98,.19,1.36,.58c.38,.39,.57,.84,.57,1.37v2.61l5.68,7.29,5.77-7.29v-2.63c0-.52,.19-.98,.56-1.36,.38-.38,.82-.57,1.33-.57s.93,.18,1.32,.53c.38,.35,.57,.82,.57,1.41v3.96l-7.61,9.67Z"/>
          <path class="cls-1" d="M158.59,74.12v8c0,1.7-.8,3.27-2.4,4.71-1.6,1.44-3.25,2.16-4.94,2.16h-4.44c-1.73,0-3.38-.73-4.96-2.2-1.58-1.46-2.37-3.02-2.37-4.67v-8c0-1.65,.77-3.21,2.31-4.67,1.54-1.46,3.21-2.2,5.01-2.2h4.44c1.7-.03,3.34,.68,4.94,2.12,1.6,1.44,2.4,3.03,2.4,4.75Zm-15.27,.16v7.66c0,.69,.25,1.24,.74,1.64l1.42,1.22c.31,.27,.76,.41,1.33,.41h4.39c.65,0,1.23-.23,1.76-.7l1.15-1.01c.47-.36,.7-.86,.7-1.51v-7.66c0-.75-.23-1.31-.7-1.67l-1.33-1.06c-.45-.38-.98-.56-1.58-.56h-3.92c-.86,0-1.52,.2-1.98,.61l-1.28,1.1c-.47,.39-.7,.9-.7,1.53Z"/>
          <path class="cls-1" d="M171.79,85.2l6.36-4.05v-11.96c0-.53,.18-.98,.55-1.36s.81-.57,1.34-.57,.97,.19,1.34,.57c.37,.38,.55,.84,.55,1.36v17.95c0,.51-.19,.95-.56,1.33-.38,.38-.82,.56-1.33,.56s-.95-.19-1.33-.56-.56-.82-.56-1.33v-1.49l-3.28,2.14c-1.29,.83-2.59,1.24-3.91,1.24h-1.75c-1.54,0-2.87-.54-3.98-1.62s-1.7-2.4-1.78-3.96l-.56-14.26c-.03-.5,.15-.94,.53-1.32s.84-.57,1.36-.57,.95,.19,1.32,.56c.37,.38,.56,.82,.57,1.33l.52,13.99c.04,1.35,.82,2.03,2.31,2.03h2.29Z"/>
          <path class="cls-1" d="M186.03,87.13v-17.95c0-.53,.18-.98,.55-1.36,.37-.38,.81-.57,1.34-.57s.97,.19,1.34,.56c.37,.38,.55,.83,.55,1.37v2.36l3.09-2.64c1.28-1.08,2.52-1.62,3.74-1.62h2.77c1.56,0,2.9,.56,4.01,1.67,1.11,1.11,1.67,2.45,1.67,4.01v1.01c0,.54-.18,1-.55,1.37-.37,.38-.81,.56-1.34,.56s-.97-.18-1.34-.55c-.37-.37-.55-.81-.55-1.34v-1.06c0-.53-.18-.97-.55-1.34-.37-.37-.81-.55-1.34-.55h-2.46c-.53,0-1.11,.28-1.76,.83l-5.38,4.66v10.56c0,.53-.19,.97-.56,1.34-.38,.37-.82,.55-1.33,.55s-.97-.18-1.34-.55c-.37-.37-.55-.81-.55-1.34Z"/>
          <path class="cls-1" d="M243.97,70.8v12.59l1.1,1.85h1.58l1.15-1.89v-22.32c0-.53,.19-.98,.57-1.36,.38-.38,.84-.57,1.36-.57s.95,.19,1.33,.56c.38,.38,.56,.82,.56,1.33v22.97c0,.29-.16,.68-.47,1.19l-1.76,2.91c-.36,.65-.91,.97-1.64,.97h-3.56c-1.13,0-1.85-.51-2.16-1.53-.35,1.02-1.04,1.53-2.07,1.53h-3.33c-.96,0-1.65-.35-2.07-1.06l-1.62-2.73c-.3-.5-.45-.92-.45-1.28v-22.93c0-.53,.19-.98,.57-1.36,.38-.38,.84-.57,1.36-.57,.5,0,.93,.19,1.3,.57,.37,.38,.55,.84,.55,1.36v22.41l1.1,1.8h1.62l1.19-1.89v-12.55c0-.53,.18-.97,.55-1.34,.37-.37,.81-.55,1.34-.55s.97,.18,1.34,.55c.37,.37,.55,.81,.55,1.34Z"/>
          <path class="cls-1" d="M261.42,75.38h7.42c.41,0,.99,.09,1.76,.27l-.04-2.68c0-.53-.18-.97-.55-1.34-.37-.37-.82-.55-1.34-.55h-7.2c-.51,0-.96-.19-1.33-.56-.38-.38-.56-.82-.56-1.33s.18-.97,.55-1.34c.37-.37,.82-.55,1.34-.55h7.2c1.56,0,2.9,.55,4,1.64,1.11,1.1,1.68,2.44,1.73,4.03l.47,14.17c0,.53-.19,.97-.56,1.34-.38,.37-.82,.55-1.33,.55-.54,0-1-.18-1.37-.55-.38-.37-.56-.81-.56-1.34l-3.2,1.89h-6.41c-1.59,0-2.95-.56-4.06-1.67-1.11-1.11-1.67-2.46-1.67-4.05v-2.21c0-1.58,.56-2.92,1.68-4.04,1.12-1.12,2.47-1.68,4.05-1.68Zm9.46,7.37l-.11-1.6c-.02-.54-.2-.99-.56-1.35-.36-.36-.8-.54-1.33-.54h-7.46c-.53,0-.97,.18-1.34,.55-.37,.37-.55,.81-.55,1.34v2.12c0,.51,.19,.95,.56,1.33s.82,.56,1.33,.56h5.34l4.13-2.41Z"/>
          <path class="cls-1" d="M298.13,72.83l-10.2,23.07c-.35,.82-.95,1.24-1.8,1.24h-5.25c-.53,0-.97-.18-1.34-.54-.37-.36-.55-.81-.55-1.35s.18-.97,.55-1.33c.37-.36,.81-.54,1.34-.54h4.05l2.59-6.01h-.92c-.86,0-1.47-.44-1.85-1.33l-5.67-13.2v-3.65c0-.53,.18-.97,.54-1.34,.36-.37,.8-.55,1.31-.55s.98,.18,1.36,.55c.38,.37,.57,.81,.57,1.34v2.82s4.98,11.53,4.98,11.53h1.31l5.14-11.49v-2.9c0-.49,.2-.93,.58-1.32,.38-.38,.84-.57,1.36-.57s.95,.19,1.33,.56c.38,.38,.56,.82,.56,1.33v3.69Z"/>
          <path class="cls-1" d="M344.58,79.75v1.67c0,2.09-.74,3.88-2.22,5.37-1.48,1.49-3.26,2.24-5.35,2.24h-11.58v-29.93h11.58c2.09,0,3.87,.74,5.35,2.23,1.48,1.49,2.22,3.28,2.22,5.38v1.6c0,2.24-.86,4.14-2.59,5.72,1.73,1.61,2.59,3.51,2.59,5.72Zm-3.87-11.49v-1.55c0-1.05-.37-1.95-1.11-2.7-.74-.75-1.63-1.13-2.67-1.13h-7.7v9.17h7.7c1.02,0,1.91-.37,2.66-1.11,.75-.74,1.13-1.63,1.13-2.67Zm0,13.15v-1.58c0-1.05-.37-1.95-1.11-2.7-.74-.75-1.63-1.13-2.67-1.13h-7.66v9.19h7.66c1.02,0,1.91-.37,2.66-1.11,.75-.74,1.13-1.63,1.13-2.67Z"/>
          <path class="cls-1" d="M354.42,75.38h7.42c.41,0,.99,.09,1.76,.27l-.04-2.68c0-.53-.18-.97-.55-1.34-.37-.37-.82-.55-1.34-.55h-7.2c-.51,0-.96-.19-1.33-.56-.38-.38-.56-.82-.56-1.33s.18-.97,.55-1.34c.37-.37,.82-.55,1.34-.55h7.2c1.56,0,2.9,.55,4,1.64,1.11,1.1,1.68,2.44,1.73,4.03l.47,14.17c0,.53-.19,.97-.56,1.34-.38,.37-.82,.55-1.33,.55-.54,0-1-.18-1.37-.55-.38-.37-.56-.81-.56-1.34l-3.2,1.89h-6.41c-1.59,0-2.95-.56-4.06-1.67-1.11-1.11-1.67-2.46-1.67-4.05v-2.21c0-1.58,.56-2.92,1.68-4.04,1.12-1.12,2.47-1.68,4.05-1.68Zm9.46,7.37l-.11-1.6c-.02-.54-.2-.99-.56-1.35-.36-.36-.8-.54-1.33-.54h-7.46c-.53,0-.97,.18-1.34,.55-.37,.37-.55,.81-.55,1.34v2.12c0,.51,.19,.95,.56,1.33s.82,.56,1.33,.56h5.34l4.13-2.41Z"/>
          <path class="cls-1" d="M389.23,89.03h-8.09c-1.43,0-2.64-.43-3.65-1.28l-3.67-3.2c-1.17-.98-1.76-2.3-1.76-3.96v-4.93c-.06-1.61,.6-3,1.98-4.19l3.31-2.86c1.07-.87,2.21-1.31,3.42-1.31h8.49c.53,0,.97,.18,1.34,.55,.37,.37,.55,.81,.55,1.34s-.18,.99-.55,1.35c-.37,.36-.81,.54-1.34,.54h-8.13c-.51,0-1,.2-1.46,.61l-3.04,2.59c-.5,.42-.74,.98-.74,1.69v4.62c0,.5,.19,.92,.59,1.26l3.33,2.84c.42,.38,.98,.56,1.67,.56h7.75c.51,0,.95,.18,1.33,.55,.38,.37,.56,.81,.56,1.34s-.18,.97-.55,1.34c-.37,.37-.81,.55-1.34,.55Z"/>
          <path class="cls-1" d="M395.27,87.13v-26.1c0-.54,.18-1,.55-1.37,.37-.38,.81-.56,1.34-.56s.97,.19,1.34,.56c.37,.38,.55,.83,.55,1.37v15.45l10.18-8.65c.44-.36,.91-.54,1.42-.54,.54,0,.99,.19,1.35,.58,.36,.38,.54,.84,.54,1.37,0,.56-.19,1-.58,1.33l-7.94,6.7,9.78,8.58c.39,.32,.59,.73,.59,1.24s-.18,.94-.54,1.34c-.36,.4-.8,.6-1.33,.6s-.99-.17-1.4-.52l-10.08-8.76-1.99,1.67v5.72c0,.52-.18,.97-.55,1.34-.37,.37-.81,.55-1.34,.55s-.97-.18-1.34-.55c-.37-.37-.55-.81-.55-1.34Z"/>
        </g>
        <g class="cls-3">
          <path class="cls-4" d="M9.48,14.47v-1.19L4.66,6.4v28.11c0,.65-.23,1.2-.68,1.65s-1,.68-1.65,.68-1.2-.23-1.65-.69c-.45-.46-.68-1.01-.68-1.64V0H6.02l5.72,8.35L17.66,0h5.91V34.51c0,.65-.24,1.2-.71,1.65-.47,.45-1.03,.68-1.68,.68s-1.17-.23-1.64-.69-.69-1.01-.69-1.64V6.51l-4.71,6.65v1.3c0,.63-.23,1.17-.69,1.64-.46,.46-1.01,.69-1.64,.69s-1.2-.23-1.65-.69c-.45-.46-.68-1.01-.68-1.64Z"/>
          <path class="cls-4" d="M57.85,18.85v5.63c0,.63-.23,1.17-.69,1.64s-1.01,.69-1.64,.69h-16.47v1.36c0,.79,.34,1.47,1.03,2.02l1.36,1.14c.74,.57,1.44,.86,2.11,.86h11.98c.63,0,1.17,.23,1.64,.68,.46,.45,.69,1,.69,1.65s-.24,1.17-.71,1.64-1.01,.69-1.62,.69h-12.28c-.81,0-1.67-.17-2.56-.51s-1.56-.7-1.98-1.07l-2.08-1.83c-.65-.52-1.19-1.24-1.62-2.16-.43-.92-.65-1.77-.65-2.55v-10.67c0-.61,.24-1.43,.71-2.47s1.07-1.84,1.79-2.41l1.94-1.52c1.28-1.03,2.69-1.55,4.24-1.55h6.54c1.65,0,3.2,.68,4.66,2.05l1.75,1.66c1.26,1.13,1.89,2.81,1.89,5.05Zm-18.74-.36v3.6h14.14v-3.24c0-.87-.27-1.53-.8-2l-1.36-1.19c-.7-.57-1.33-.86-1.89-.86h-5.85c-.72,0-1.38,.25-1.97,.75l-1.36,1.14c-.61,.46-.91,1.06-.91,1.8Z"/>
          <path class="cls-4" d="M68.11,34.51V12.42c0-.65,.23-1.2,.68-1.65,.45-.45,1-.68,1.65-.68,1.2,0,1.96,.59,2.27,1.77,1.29-1.22,2.73-1.83,4.32-1.83,1.86,0,3.4,.79,4.59,2.38,1.48-1.59,3.1-2.38,4.87-2.38,1.44,0,2.69,.51,3.75,1.54s1.63,2.33,1.7,3.92l.67,19.02c0,.63-.23,1.17-.69,1.64s-1.01,.69-1.64,.69-1.2-.23-1.66-.69-.7-1.01-.72-1.64l-.55-18.27c-.04-1-.34-1.5-.92-1.5-.31,0-.64,.14-.97,.42l-2.77,2.33v17.02c0,.63-.23,1.16-.68,1.61-.45,.44-1,.67-1.65,.67s-1.17-.23-1.64-.68c-.46-.45-.69-1-.69-1.65V15.94c0-.79-.34-1.19-1.02-1.19-.33,0-.63,.12-.91,.36l-3.34,2.83v16.58c0,.63-.22,1.17-.67,1.64-.44,.46-.98,.69-1.61,.69s-1.21-.23-1.68-.69c-.47-.46-.71-1.01-.71-1.64Z"/>
          <path class="cls-4" d="M126.44,18.49v9.84c0,2.09-.98,4.02-2.95,5.79-1.97,1.77-4,2.66-6.08,2.66h-5.46c-2.13,0-4.16-.9-6.1-2.7s-2.91-3.72-2.91-5.75v-9.84c0-2.03,.95-3.95,2.84-5.75,1.89-1.8,3.95-2.7,6.17-2.7h5.46c2.09-.04,4.12,.83,6.08,2.61,1.97,1.77,2.95,3.72,2.95,5.85Zm-18.8,.19v9.43c0,.85,.31,1.52,.92,2.02l1.75,1.5c.39,.33,.93,.5,1.64,.5h5.41c.79,0,1.52-.29,2.16-.86l1.41-1.25c.57-.44,.86-1.06,.86-1.86v-9.43c0-.92-.29-1.61-.86-2.05l-1.64-1.3c-.55-.46-1.2-.69-1.94-.69h-4.82c-1.05,0-1.87,.25-2.44,.75l-1.58,1.36c-.57,.48-.86,1.11-.86,1.88Z"/>
          <path class="cls-4" d="M137.28,34.51V12.42c0-.65,.23-1.21,.68-1.68,.45-.47,1-.71,1.65-.71s1.2,.23,1.65,.69c.45,.46,.68,1.03,.68,1.69v2.91l3.8-3.24c1.57-1.33,3.1-2,4.6-2h3.41c1.92,0,3.57,.68,4.93,2.05s2.05,3.01,2.05,4.93v1.25c0,.67-.23,1.23-.68,1.69-.45,.46-1,.69-1.65,.69s-1.2-.23-1.65-.68c-.45-.45-.68-1-.68-1.65v-1.3c0-.65-.23-1.2-.68-1.65-.45-.45-1-.68-1.65-.68h-3.02c-.65,0-1.37,.34-2.16,1.03l-6.63,5.74v13c0,.65-.23,1.2-.69,1.65-.46,.45-1.01,.68-1.64,.68s-1.2-.23-1.65-.68c-.45-.45-.68-1-.68-1.65Z"/>
          <path class="cls-4" d="M195.08,16.91l-12.55,28.39c-.43,1.02-1.17,1.52-2.22,1.52h-6.46c-.65,0-1.2-.22-1.65-.67-.45-.44-.68-1-.68-1.66s.23-1.19,.68-1.64c.45-.44,1-.67,1.65-.67h4.99l3.19-7.4h-1.14c-1.05,0-1.81-.54-2.28-1.63l-6.98-16.25v-4.49c0-.65,.22-1.2,.67-1.65,.44-.45,.98-.68,1.61-.68s1.21,.23,1.68,.68c.47,.45,.71,1,.71,1.65v3.47s6.13,14.19,6.13,14.19h1.62l6.33-14.14v-3.57c.01-.61,.25-1.15,.72-1.62s1.03-.71,1.68-.71,1.17,.23,1.64,.69c.46,.46,.69,1.01,.69,1.64v4.55Z"/>
          <path class="cls-4" d="M240.15,36.84V2.33c0-.63,.23-1.17,.69-1.64,.46-.46,1.01-.69,1.64-.69s1.17,.23,1.64,.69c.46,.46,.69,1.01,.69,1.64v29.86h16.47c.65,0,1.21,.23,1.68,.68,.47,.45,.71,1,.71,1.65s-.24,1.2-.71,1.65c-.47,.45-1.03,.68-1.68,.68h-21.12Z"/>
          <path class="cls-4" d="M297.9,18.49v9.84c0,2.09-.98,4.02-2.95,5.79-1.97,1.77-4,2.66-6.08,2.66h-5.46c-2.13,0-4.16-.9-6.1-2.7s-2.91-3.72-2.91-5.75v-9.84c0-2.03,.95-3.95,2.84-5.75,1.89-1.8,3.95-2.7,6.17-2.7h5.46c2.09-.04,4.12,.83,6.08,2.61,1.97,1.77,2.95,3.72,2.95,5.85Zm-18.8,.19v9.43c0,.85,.31,1.52,.92,2.02l1.75,1.5c.39,.33,.93,.5,1.64,.5h5.41c.79,0,1.52-.29,2.16-.86l1.41-1.25c.57-.44,.86-1.06,.86-1.86v-9.43c0-.92-.29-1.61-.86-2.05l-1.64-1.3c-.55-.46-1.2-.69-1.94-.69h-4.82c-1.05,0-1.87,.25-2.44,.75l-1.58,1.36c-.57,.48-.86,1.11-.86,1.88Z"/>
          <path class="cls-4" d="M315.25,10.09h10.67c1.66,0,3.13,.49,4.41,1.48,1.27,.99,1.91,1.95,1.91,2.9,0,.67-.24,1.21-.71,1.64-.47,.43-.99,.64-1.57,.64-.74,0-1.41-.33-2.02-1-.61-.67-1.25-1-1.91-1h-10.53c-1.04,0-1.55,.43-1.55,1.29,0,.6,.35,1.06,1.04,1.37l12.38,5.51c1.26,.55,2.29,1.45,3.09,2.67,.8,1.23,1.21,2.59,1.21,4.09,0,2-.71,3.69-2.12,5.07-1.41,1.39-3.02,2.08-4.81,2.08h-9.43c-1.63,0-3.14-.49-4.53-1.47-1.4-.98-2.09-1.93-2.09-2.86,0-.61,.23-1.15,.68-1.62,.45-.47,1.04-.71,1.76-.71,.59,0,1.22,.33,1.9,1,.67,.67,1.65,1,2.92,1h8.68c.68,0,1.26-.26,1.72-.79s.69-1.13,.69-1.82c0-1.05-.52-1.81-1.55-2.27l-12.5-5.63c-1.2-.54-2.12-1.31-2.77-2.33-.65-1.02-.97-2.05-.97-3.1,0-1.66,.58-3.1,1.73-4.32s2.58-1.83,4.28-1.83Z"/>
          <path class="cls-4" d="M349.54,10.09h10.67c1.66,0,3.13,.49,4.41,1.48,1.27,.99,1.91,1.95,1.91,2.9,0,.67-.24,1.21-.71,1.64-.47,.43-.99,.64-1.57,.64-.74,0-1.41-.33-2.02-1-.61-.67-1.25-1-1.91-1h-10.53c-1.04,0-1.55,.43-1.55,1.29,0,.6,.35,1.06,1.04,1.37l12.38,5.51c1.26,.55,2.29,1.45,3.09,2.67,.8,1.23,1.21,2.59,1.21,4.09,0,2-.71,3.69-2.12,5.07-1.41,1.39-3.02,2.08-4.81,2.08h-9.43c-1.63,0-3.14-.49-4.53-1.47-1.4-.98-2.09-1.93-2.09-2.86,0-.61,.23-1.15,.68-1.62,.45-.47,1.04-.71,1.76-.71,.59,0,1.22,.33,1.9,1,.67,.67,1.65,1,2.92,1h8.68c.68,0,1.26-.26,1.72-.79s.69-1.13,.69-1.82c0-1.05-.52-1.81-1.55-2.27l-12.5-5.63c-1.2-.54-2.12-1.31-2.77-2.33-.65-1.02-.97-2.05-.97-3.1,0-1.66,.58-3.1,1.73-4.32s2.58-1.83,4.28-1.83Z"/>
        </g>
      </g>
    </g>
  </g>
</svg>