<?xml version="1.0" encoding="UTF-8"?>
<svg id="Ebene_2" data-name="Ebene 2" xmlns="http://www.w3.org/2000/svg" xmlns:xlink="http://www.w3.org/1999/xlink" viewBox="0 0 1044.95 451.86">
  <defs>
    <style>
      .cls-1 {
        fill: url(#Unbenannter_Verlauf_53);
      }

      .cls-2 {
        fill: url(#Unbenannter_Verlauf_24);
      }

      .cls-3 {
        fill: url(#Unbenannter_Verlauf_65);
      }
    </style>
    <radialGradient id="Unbenannter_Verlauf_24" data-name="Unbenannter Verlauf 24" cx="522.47" cy="225.85" fx="522.47" fy="225.85" r="402.48" gradientUnits="userSpaceOnUse">
      <stop offset=".1" stop-color="#18003f"/>
      <stop offset=".3" stop-color="#130032"/>
      <stop offset=".5" stop-color="#10002b"/>
      <stop offset=".74" stop-color="#0d0032"/>
      <stop offset=".98" stop-color="#08003f"/>
    </radialGradient>
    <linearGradient id="Unbenannter_Verlauf_53" data-name="Unbenannter Verlauf 53" x1=".06" y1="346.35" x2="1044.88" y2="346.35" gradientUnits="userSpaceOnUse">
      <stop offset="0" stop-color="#007bac"/>
      <stop offset="1" stop-color="#ff7bac" stop-opacity="0"/>
    </linearGradient>
    <linearGradient id="Unbenannter_Verlauf_65" data-name="Unbenannter Verlauf 65" x1=".06" y1="322.86" x2="1044.88" y2="322.86" gradientUnits="userSpaceOnUse">
      <stop offset="0" stop-color="#0014aa"/>
      <stop offset=".43" stop-color="#74a" stop-opacity=".53"/>
      <stop offset=".82" stop-color="#d86bab" stop-opacity=".15"/>
      <stop offset="1" stop-color="#ff7bac" stop-opacity="0"/>
    </linearGradient>
  </defs>
  <g id="Preview">
    <rect id="Background" class="cls-2" width="1044.95" height="451.7"/>
    <g id="Filling">
      <path id="Schnittmenge_3" data-name="Schnittmenge 3" class="cls-1" d="m40.06,451.85C17.97,451.85.06,433.94.06,411.85v-149.23c34.26-47.8,106.79-8.52,158.69,37.44,70.04,62.03,206.01,76.37,312.59,48.1,106.58-28.27,178.75-124.48,378.67,27.85,115.46,87.97,169.67,49,194.87.37v35.47c0,22.09-17.91,40-40,40H40.06Z"/>
      <path id="Schnittmenge_4" data-name="Schnittmenge 4" class="cls-3" d="m40.06,451.85C17.97,451.85.06,433.94.06,411.85H.06v-171.79c12.45,9.22,26.73,15.65,41.88,18.86,21.5,4.58,38.12-13.8,60.47-32.17,41.17-33.85,101.78-67.71,248.06,41.97,225.68,169.2,325.78,50.51,408.46,39.9s116.89,64.29,171.34,74.9c34.01,6.63,82.79-28.08,114.61-55.06v83.39c0,22.09-17.91,40-40,40H40.06Z"/>
    </g>
  </g>
</svg>