<?xml version="1.0" encoding="UTF-8"?>
<svg id="Ebene_2" data-name="Ebene 2" xmlns="http://www.w3.org/2000/svg" xmlns:xlink="http://www.w3.org/1999/xlink" viewBox="0 0 355.35 82.87">
  <defs>
    <style>
      .cls-1 {
        fill: #f79e00;
      }

      .cls-2 {
        filter: url(#drop-shadow-1);
      }

      .cls-3 {
        fill: gray;
      }
    </style>
    <filter id="drop-shadow-1" filterUnits="userSpaceOnUse">
      <feOffset dx="7" dy="7"/>
      <feGaussianBlur result="blur" stdDeviation="5"/>
      <feFlood flood-color="#000" flood-opacity=".75"/>
      <feComposite in2="blur" operator="in"/>
      <feComposite in="SourceGraphic"/>
    </filter>
  </defs>
  <g id="Title">
    <g>
      <g class="cls-2">
        <path class="cls-3" d="M7.48,11.41v-.94L3.67,5.05V27.21c0,.51-.18,.94-.54,1.3-.36,.36-.79,.54-1.3,.54s-.94-.18-1.3-.55c-.36-.36-.54-.79-.54-1.29V0H4.75l4.51,6.58L13.92,0h4.66V27.21c0,.51-.19,.94-.56,1.3-.37,.36-.81,.54-1.32,.54s-.93-.18-1.29-.55-.55-.79-.55-1.29V5.14l-3.72,5.25v1.03c0,.5-.18,.93-.55,1.29s-.79,.55-1.29,.55-.94-.18-1.3-.55c-.36-.36-.54-.79-.54-1.29Z"/>
        <path class="cls-3" d="M45.62,14.86v4.44c0,.5-.18,.93-.55,1.29-.36,.36-.79,.55-1.29,.55h-12.98v1.07c0,.63,.27,1.16,.81,1.6l1.07,.9c.58,.45,1.14,.68,1.66,.68h9.44c.5,0,.92,.18,1.29,.54,.36,.36,.55,.79,.55,1.3s-.19,.93-.56,1.29-.8,.55-1.28,.55h-9.68c-.64,0-1.32-.13-2.02-.4-.71-.27-1.23-.55-1.56-.84l-1.64-1.44c-.51-.41-.94-.98-1.28-1.7s-.51-1.4-.51-2.01V14.23c0-.48,.19-1.13,.56-1.95,.37-.82,.84-1.45,1.41-1.9l1.53-1.2c1.01-.82,2.12-1.22,3.34-1.22h5.16c1.3,0,2.52,.54,3.67,1.62l1.38,1.31c.99,.89,1.49,2.21,1.49,3.98Zm-14.78-.28v2.84h11.15v-2.56c0-.69-.21-1.21-.63-1.57l-1.07-.94c-.55-.45-1.05-.68-1.49-.68h-4.61c-.57,0-1.09,.2-1.55,.59l-1.07,.9c-.48,.36-.72,.84-.72,1.42Z"/>
        <path class="cls-3" d="M53.7,27.21V9.79c0-.51,.18-.94,.54-1.3s.79-.54,1.3-.54c.95,0,1.54,.47,1.79,1.4,1.02-.96,2.15-1.44,3.4-1.44,1.47,0,2.68,.63,3.62,1.88,1.16-1.25,2.44-1.88,3.84-1.88,1.13,0,2.12,.4,2.96,1.21s1.28,1.84,1.34,3.09l.52,14.99c0,.5-.18,.93-.55,1.29-.36,.36-.79,.55-1.29,.55s-.95-.18-1.31-.55c-.36-.36-.55-.79-.57-1.29l-.44-14.4c-.03-.79-.27-1.18-.72-1.18-.25,0-.5,.11-.77,.33l-2.19,1.84v13.42c0,.5-.18,.92-.54,1.27-.36,.35-.79,.52-1.3,.52s-.93-.18-1.29-.54-.55-.79-.55-1.3V12.57c0-.63-.27-.94-.8-.94-.26,0-.5,.09-.72,.28l-2.63,2.23v13.07c0,.5-.17,.93-.52,1.29s-.77,.55-1.27,.55-.95-.18-1.32-.55-.56-.79-.56-1.29Z"/>
        <path class="cls-3" d="M99.69,14.58v7.76c0,1.65-.78,3.17-2.33,4.57-1.55,1.4-3.15,2.1-4.8,2.1h-4.31c-1.68,0-3.28-.71-4.81-2.13-1.53-1.42-2.3-2.93-2.3-4.54v-7.76c0-1.6,.75-3.11,2.24-4.54,1.49-1.42,3.11-2.13,4.86-2.13h4.31c1.65-.03,3.25,.66,4.8,2.05,1.55,1.4,2.33,2.94,2.33,4.61Zm-14.82,.15v7.43c0,.67,.24,1.2,.72,1.6l1.38,1.18c.31,.26,.74,.39,1.29,.39h4.26c.63,0,1.19-.23,1.71-.68l1.11-.98c.45-.35,.68-.84,.68-1.46v-7.43c0-.73-.23-1.27-.68-1.62l-1.29-1.03c-.44-.36-.95-.55-1.53-.55h-3.8c-.83,0-1.47,.2-1.92,.59l-1.25,1.07c-.45,.38-.68,.87-.68,1.49Z"/>
        <path class="cls-3" d="M108.24,27.21V9.79c0-.51,.18-.95,.54-1.32,.36-.37,.79-.56,1.3-.56s.94,.18,1.3,.55c.36,.36,.54,.81,.54,1.33v2.3l2.99-2.56c1.24-1.05,2.45-1.57,3.63-1.57h2.69c1.52,0,2.81,.54,3.89,1.62,1.08,1.08,1.62,2.38,1.62,3.89v.98c0,.52-.18,.97-.54,1.33-.36,.36-.79,.55-1.3,.55s-.94-.18-1.3-.54c-.36-.36-.54-.79-.54-1.3v-1.03c0-.51-.18-.94-.54-1.3-.36-.36-.79-.54-1.3-.54h-2.38c-.51,0-1.08,.27-1.71,.81l-5.22,4.52v10.25c0,.51-.18,.94-.55,1.3-.36,.36-.79,.54-1.29,.54s-.94-.18-1.3-.54c-.36-.36-.54-.79-.54-1.3Z"/>
        <path class="cls-3" d="M153.81,13.33l-9.9,22.38c-.34,.8-.92,1.2-1.75,1.2h-5.1c-.51,0-.94-.17-1.3-.52-.36-.35-.54-.79-.54-1.31s.18-.94,.54-1.29c.36-.35,.79-.52,1.3-.52h3.93l2.51-5.84h-.89c-.83,0-1.43-.43-1.8-1.29l-5.5-12.81v-3.54c0-.51,.17-.94,.52-1.3,.35-.36,.77-.54,1.27-.54s.95,.18,1.32,.54c.37,.36,.56,.79,.56,1.3v2.73s4.83,11.19,4.83,11.19h1.28l4.99-11.15v-2.82c0-.48,.19-.91,.57-1.28,.37-.37,.81-.56,1.32-.56s.92,.18,1.29,.55,.55,.79,.55,1.29v3.58Z"/>
        <path class="cls-3" d="M189.35,29.05V1.84c0-.5,.18-.93,.55-1.29s.79-.55,1.29-.55,.93,.18,1.29,.55,.55,.79,.55,1.29V25.38h12.98c.51,0,.95,.18,1.32,.54,.37,.36,.56,.79,.56,1.3s-.19,.94-.56,1.3c-.37,.36-.81,.54-1.32,.54h-16.66Z"/>
        <path class="cls-3" d="M234.88,14.58v7.76c0,1.65-.78,3.17-2.33,4.57s-3.15,2.1-4.8,2.1h-4.31c-1.68,0-3.28-.71-4.81-2.13s-2.29-2.93-2.29-4.54v-7.76c0-1.6,.75-3.11,2.24-4.54,1.49-1.42,3.12-2.13,4.86-2.13h4.31c1.65-.03,3.25,.66,4.8,2.05,1.55,1.4,2.33,2.94,2.33,4.61Zm-14.82,.15v7.43c0,.67,.24,1.2,.72,1.6l1.38,1.18c.31,.26,.74,.39,1.29,.39h4.26c.63,0,1.2-.23,1.71-.68l1.12-.98c.45-.35,.68-.84,.68-1.46v-7.43c0-.73-.23-1.27-.68-1.62l-1.29-1.03c-.44-.36-.95-.55-1.53-.55h-3.8c-.83,0-1.47,.2-1.92,.59l-1.25,1.07c-.45,.38-.68,.87-.68,1.49Z"/>
        <path class="cls-3" d="M248.56,7.96h8.42c1.31,0,2.47,.39,3.48,1.17,1.01,.78,1.51,1.54,1.51,2.28,0,.52-.19,.95-.56,1.29-.37,.34-.78,.5-1.24,.5-.58,0-1.11-.26-1.6-.79-.48-.52-.98-.79-1.51-.79h-8.31c-.82,0-1.22,.34-1.22,1.02,0,.48,.27,.84,.82,1.08l9.76,4.35c.99,.44,1.8,1.14,2.44,2.11,.63,.97,.95,2.04,.95,3.22,0,1.57-.56,2.91-1.67,4-1.11,1.09-2.38,1.64-3.79,1.64h-7.43c-1.28,0-2.47-.39-3.57-1.16-1.1-.77-1.65-1.52-1.65-2.25,0-.48,.18-.91,.54-1.28,.36-.37,.82-.56,1.39-.56,.47,0,.96,.26,1.5,.79,.53,.52,1.3,.79,2.31,.79h6.84c.54,0,.99-.21,1.36-.62,.36-.42,.55-.89,.55-1.43,0-.83-.41-1.43-1.22-1.79l-9.86-4.44c-.95-.42-1.68-1.03-2.19-1.84-.51-.8-.76-1.62-.76-2.45,0-1.31,.46-2.45,1.37-3.41,.91-.96,2.04-1.44,3.38-1.44Z"/>
        <path class="cls-3" d="M283.36,29.05h-3.67c-1.52,0-2.82-.54-3.91-1.62-1.09-1.08-1.64-2.38-1.64-3.89V11.63h-1.88c-.51,0-.94-.18-1.3-.52-.36-.35-.54-.79-.54-1.31s.18-.94,.54-1.3c.36-.36,.79-.54,1.3-.54h1.92V3.45c0-.51,.18-.94,.54-1.3,.36-.36,.79-.54,1.3-.54,.48,0,.91,.18,1.28,.55,.37,.36,.56,.79,.56,1.29V7.96h7.39c.5,0,.92,.18,1.29,.55,.36,.36,.55,.79,.55,1.29s-.18,.94-.55,1.3-.79,.54-1.29,.54h-7.43v11.91c0,.5,.19,.93,.56,1.29,.37,.36,.81,.55,1.32,.55h3.58c.98,0,1.62-.53,1.95-1.58,.32-1.06,.94-1.58,1.86-1.58,.54,0,.98,.18,1.32,.54,.34,.36,.51,.81,.51,1.34,0,1.11-.52,2.21-1.56,3.31-1.04,1.1-2.37,1.65-3.99,1.65Z"/>
      </g>
      <g>
        <path class="cls-1" d="M3.92,74.98v-22.11h13.53c.39,0,.74,.15,1.04,.44,.3,.3,.45,.65,.45,1.05s-.15,.77-.44,1.07c-.3,.3-.65,.45-1.05,.45H6.91v4.69h7.57c.41,0,.77,.15,1.06,.44,.29,.29,.44,.64,.44,1.06s-.15,.77-.44,1.06c-.29,.29-.64,.44-1.06,.44H6.91v11.42c0,.41-.15,.77-.44,1.06-.29,.29-.64,.44-1.06,.44s-.77-.15-1.06-.44c-.29-.29-.44-.64-.44-1.06Z"/>
        <path class="cls-1" d="M35.75,76.44h-9.09c-.41,0-.77-.14-1.06-.44-.29-.29-.44-.64-.44-1.06s.15-.75,.44-1.05c.29-.3,.64-.44,1.06-.44h3.05v-11.13h-3.02c-.41,0-.77-.15-1.06-.44-.29-.3-.44-.65-.44-1.05s.14-.77,.44-1.07c.29-.3,.64-.45,1.06-.45h4.55c.41,0,.77,.15,1.06,.45,.29,.3,.44,.66,.44,1.07v12.63h2.98c.41,0,.77,.15,1.07,.44,.3,.29,.45,.64,.45,1.06s-.15,.77-.44,1.06c-.3,.29-.65,.44-1.05,.44Zm-6.07-24.88h1.56c.41,0,.77,.15,1.06,.44,.29,.29,.44,.64,.44,1.06v1.28c0,.41-.15,.77-.44,1.07-.29,.3-.64,.45-1.06,.45h-1.6c-.43,0-.78-.15-1.07-.46-.29-.31-.43-.65-.42-1.03l.04-1.31c0-.41,.15-.77,.44-1.06s.64-.44,1.06-.44Z"/>
        <path class="cls-1" d="M50.55,62.8l-4.08,2.65v9.54c0,.4-.15,.75-.44,1.05-.3,.3-.65,.44-1.05,.44s-.75-.15-1.05-.44-.44-.65-.44-1.05v-14.15c0-.41,.14-.77,.44-1.07,.29-.3,.64-.45,1.06-.45s.75,.15,1.05,.45c.3,.3,.44,.66,.44,1.07v.99l2.72-1.65c.91-.58,1.94-.87,3.09-.87h1.39c1.19,0,2.21,.42,3.08,1.26,.87,.84,1.32,1.88,1.37,3.11l.41,11.31c.01,.4-.13,.75-.43,1.05s-.65,.44-1.07,.44c-.39,0-.73-.13-1.03-.4-.3-.27-.45-.63-.46-1.09l-.44-11.13c-.04-1.04-.58-1.56-1.64-1.56h-1.46c-.45,0-.94,.17-1.46,.52Z"/>
        <path class="cls-1" d="M75.28,61.42v-7.05c0-.41,.14-.77,.43-1.06s.63-.44,1.03-.44,.77,.15,1.07,.44c.3,.29,.45,.64,.45,1.06v20.62c0,.41-.15,.77-.44,1.06s-.65,.44-1.05,.44c-.43,0-.78-.15-1.07-.44s-.43-.64-.43-1.06v-.66c-1.46,1.43-2.82,2.15-4.08,2.15h-2.54c-1.02,0-2.04-.44-3.05-1.31l-1.24-1.05c-.28-.27-.55-.73-.81-1.37-.25-.64-.38-1.24-.38-1.79v-6.07c0-.67,.14-1.33,.43-1.96,.28-.63,.62-1.11,.99-1.43l1.23-1.05c.88-.76,1.91-1.14,3.09-1.14h2.15c1.17,0,2.24,.41,3.2,1.24l1.03,.87Zm-4.33,.91h-2.08c-.44,0-.83,.16-1.19,.48l-.96,.83c-.33,.3-.5,.67-.5,1.14v6.32c0,.41,.2,.79,.59,1.12l.98,.83c.31,.27,.63,.41,.98,.41h2.43c.32,0,.7-.18,1.14-.55l2.36-1.95c.39-.34,.59-.77,.59-1.28v-3.23c0-.72-.21-1.25-.62-1.6l-2.43-2.08c-.32-.3-.75-.44-1.28-.44Z"/>
        <path class="cls-1" d="M111.91,65.15v9.83c0,.42-.15,.77-.44,1.06s-.65,.44-1.05,.44c-.43,0-.79-.15-1.08-.44-.3-.29-.44-.64-.44-1.06v-9.82l-6-7.6v-3.16c0-.43,.15-.79,.44-1.08,.29-.3,.64-.44,1.06-.44s.77,.15,1.07,.46,.45,.66,.45,1.08v2.05l4.48,5.75,4.55-5.74v-2.07c0-.41,.15-.77,.44-1.07,.29-.3,.64-.45,1.05-.45s.74,.14,1.04,.42,.45,.65,.45,1.11v3.13l-6,7.62Z"/>
        <path class="cls-1" d="M137.66,64.72v6.3c0,1.34-.63,2.58-1.89,3.71-1.26,1.14-2.56,1.7-3.9,1.7h-3.5c-1.36,0-2.66-.58-3.91-1.73s-1.87-2.38-1.87-3.69v-6.3c0-1.3,.61-2.53,1.82-3.69s2.53-1.73,3.95-1.73h3.5c1.34-.02,2.64,.53,3.9,1.67,1.26,1.14,1.89,2.39,1.89,3.75Zm-12.04,.12v6.04c0,.54,.2,.98,.59,1.3l1.12,.96c.25,.21,.6,.32,1.05,.32h3.46c.51,0,.97-.18,1.39-.55l.91-.8c.37-.28,.55-.68,.55-1.19v-6.04c0-.59-.18-1.03-.55-1.31l-1.05-.83c-.35-.3-.77-.44-1.24-.44h-3.09c-.67,0-1.2,.16-1.56,.48l-1.01,.87c-.37,.31-.55,.71-.55,1.21Z"/>
        <path class="cls-1" d="M149.52,73.46l5.02-3.2v-9.43c0-.41,.15-.77,.44-1.07,.29-.3,.64-.45,1.06-.45s.77,.15,1.06,.45c.29,.3,.43,.66,.43,1.07v14.15c0,.4-.15,.75-.44,1.05s-.65,.44-1.05,.44-.75-.15-1.05-.44-.44-.65-.44-1.05v-1.17l-2.59,1.69c-1.02,.65-2.04,.98-3.08,.98h-1.38c-1.22,0-2.26-.43-3.14-1.28-.88-.85-1.34-1.89-1.4-3.13l-.44-11.24c-.02-.39,.12-.74,.42-1.04s.66-.45,1.07-.45,.75,.15,1.04,.44,.44,.65,.45,1.05l.41,11.03c.04,1.07,.64,1.6,1.83,1.6h1.81Z"/>
        <path class="cls-1" d="M162.21,74.98v-14.15c0-.41,.14-.77,.43-1.07,.29-.3,.64-.45,1.06-.45s.77,.15,1.06,.44c.29,.3,.44,.66,.44,1.08v1.86l2.43-2.08c1.01-.85,1.99-1.28,2.95-1.28h2.18c1.23,0,2.28,.44,3.16,1.31,.88,.88,1.31,1.93,1.31,3.16v.8c0,.43-.14,.79-.43,1.08-.29,.3-.64,.44-1.06,.44s-.77-.15-1.06-.44c-.29-.29-.44-.64-.44-1.06v-.83c0-.41-.15-.77-.43-1.06-.29-.29-.64-.44-1.06-.44h-1.94c-.41,0-.88,.22-1.38,.66l-4.24,3.68v8.33c0,.41-.15,.77-.44,1.06s-.65,.44-1.05,.44-.77-.15-1.06-.44-.43-.64-.43-1.06Z"/>
        <path class="cls-1" d="M210.8,62.11v9.93l.87,1.46h1.24l.91-1.49v-17.6c0-.41,.15-.77,.45-1.07,.3-.3,.66-.45,1.08-.45s.75,.15,1.05,.44c.3,.3,.44,.65,.44,1.05v18.11c0,.23-.12,.54-.37,.94l-1.38,2.29c-.28,.51-.72,.76-1.3,.76h-2.81c-.89,0-1.46-.4-1.71-1.21-.27,.81-.82,1.21-1.63,1.21h-2.63c-.76,0-1.3-.28-1.63-.83l-1.28-2.15c-.24-.39-.35-.73-.35-1.01v-18.08c0-.41,.15-.77,.45-1.07,.3-.3,.66-.45,1.08-.45,.39,0,.73,.15,1.02,.45,.29,.3,.44,.66,.44,1.07v17.67l.87,1.42h1.28l.94-1.49v-9.89c0-.41,.14-.77,.44-1.06,.29-.29,.64-.44,1.06-.44s.77,.15,1.06,.44c.29,.29,.43,.64,.43,1.06Z"/>
        <path class="cls-1" d="M226.01,65.71h5.85c.32,0,.78,.07,1.39,.21l-.04-2.11c0-.41-.15-.77-.44-1.06-.29-.29-.64-.44-1.06-.44h-5.68c-.4,0-.75-.15-1.05-.44s-.44-.65-.44-1.05,.14-.77,.44-1.06c.29-.29,.64-.44,1.06-.44h5.67c1.23,0,2.29,.43,3.16,1.3,.87,.86,1.33,1.92,1.36,3.18l.37,11.17c0,.41-.15,.77-.44,1.06s-.65,.44-1.05,.44c-.43,0-.79-.15-1.08-.44-.3-.29-.44-.64-.44-1.06l-2.53,1.49h-5.05c-1.26,0-2.32-.44-3.2-1.31-.88-.88-1.32-1.94-1.32-3.2v-1.74c0-1.24,.44-2.31,1.33-3.19,.88-.88,1.95-1.32,3.19-1.32Zm7.46,5.81l-.09-1.26c-.01-.43-.16-.78-.44-1.07-.28-.28-.63-.43-1.05-.43h-5.88c-.42,0-.77,.15-1.06,.44-.29,.29-.44,.64-.44,1.06v1.67c0,.4,.15,.75,.44,1.05,.3,.3,.65,.44,1.05,.44h4.21l3.25-1.9Z"/>
        <path class="cls-1" d="M256.41,63.71l-8.04,18.19c-.27,.65-.75,.98-1.42,.98h-4.14c-.42,0-.77-.14-1.06-.43s-.43-.64-.43-1.07,.14-.76,.43-1.05,.64-.43,1.06-.43h3.2l2.04-4.74h-.73c-.67,0-1.16-.35-1.46-1.05l-4.47-10.41v-2.88c0-.41,.14-.77,.43-1.06s.63-.44,1.03-.44,.77,.15,1.07,.44,.45,.64,.45,1.06v2.22s3.92,9.09,3.92,9.09h1.04l4.05-9.06v-2.29c0-.39,.16-.74,.46-1.04s.66-.45,1.08-.45,.75,.15,1.05,.44c.3,.3,.44,.65,.44,1.05v2.91Z"/>
        <path class="cls-1" d="M295.95,69.16v1.31c0,1.65-.58,3.06-1.75,4.24-1.17,1.18-2.57,1.77-4.22,1.77h-9.13v-23.6h9.13c1.65,0,3.05,.59,4.22,1.76,1.17,1.17,1.75,2.59,1.75,4.24v1.26c0,1.76-.68,3.27-2.04,4.51,1.36,1.27,2.04,2.77,2.04,4.51Zm-3.05-9.06v-1.23c0-.83-.29-1.54-.88-2.13-.59-.59-1.29-.89-2.1-.89h-6.07v7.23h6.07c.8,0,1.5-.29,2.1-.88,.59-.59,.89-1.29,.89-2.1Zm0,10.37v-1.24c0-.83-.29-1.54-.88-2.13-.59-.59-1.29-.89-2.1-.89h-6.04v7.25h6.04c.8,0,1.5-.29,2.1-.88,.59-.59,.89-1.29,.89-2.1Z"/>
        <path class="cls-1" d="M305.15,65.71h5.85c.32,0,.78,.07,1.39,.21l-.03-2.11c0-.41-.15-.77-.44-1.06s-.64-.44-1.06-.44h-5.68c-.4,0-.75-.15-1.05-.44-.3-.3-.45-.65-.45-1.05s.15-.77,.44-1.06c.29-.29,.64-.44,1.06-.44h5.67c1.23,0,2.29,.43,3.16,1.3,.87,.86,1.33,1.92,1.36,3.18l.37,11.17c0,.41-.15,.77-.44,1.06s-.65,.44-1.05,.44c-.43,0-.79-.15-1.08-.44s-.44-.64-.44-1.06l-2.53,1.49h-5.05c-1.26,0-2.32-.44-3.2-1.31s-1.32-1.94-1.32-3.2v-1.74c0-1.24,.44-2.31,1.33-3.19,.88-.88,1.95-1.32,3.19-1.32Zm7.46,5.81l-.09-1.26c-.01-.43-.16-.78-.44-1.07s-.63-.43-1.05-.43h-5.88c-.42,0-.77,.15-1.06,.44-.29,.29-.44,.64-.44,1.06v1.67c0,.4,.15,.75,.44,1.05,.3,.3,.65,.44,1.05,.44h4.21l3.25-1.9Z"/>
        <path class="cls-1" d="M334.06,76.48h-6.38c-1.12,0-2.08-.34-2.88-1.01l-2.9-2.52c-.92-.77-1.38-1.81-1.38-3.13v-3.89c-.05-1.27,.47-2.37,1.56-3.3l2.61-2.26c.84-.69,1.74-1.03,2.7-1.03h6.69c.42,0,.77,.15,1.06,.44s.44,.64,.44,1.06-.15,.78-.44,1.07-.64,.43-1.06,.43h-6.41c-.4,0-.79,.16-1.15,.48l-2.4,2.04c-.39,.33-.59,.78-.59,1.33v3.64c0,.39,.15,.72,.46,.99l2.63,2.24c.33,.3,.77,.44,1.31,.44h6.11c.4,0,.75,.15,1.05,.44s.44,.64,.44,1.06-.15,.77-.44,1.06-.64,.44-1.06,.44Z"/>
        <path class="cls-1" d="M340.28,74.98v-20.58c0-.43,.14-.79,.44-1.08,.29-.3,.64-.44,1.06-.44s.77,.15,1.06,.44c.29,.3,.43,.66,.43,1.08v12.18l8.03-6.82c.34-.28,.72-.43,1.12-.43,.43,0,.78,.15,1.07,.45,.28,.3,.43,.66,.43,1.08,0,.44-.15,.79-.46,1.05l-6.26,5.29,7.71,6.77c.31,.25,.46,.57,.46,.98s-.14,.74-.43,1.06-.63,.47-1.05,.47-.78-.14-1.1-.41l-7.95-6.91-1.57,1.32v4.51c0,.41-.14,.77-.43,1.06-.29,.29-.64,.44-1.06,.44s-.77-.15-1.06-.44c-.29-.29-.44-.64-.44-1.06Z"/>
      </g>
    </g>
  </g>
</svg>