<?xml version="1.0" encoding="UTF-8"?>
<svg id="Ebene_2" data-name="Ebene 2" xmlns="http://www.w3.org/2000/svg" xmlns:xlink="http://www.w3.org/1999/xlink" viewBox="0 0 1951 1103">
  <defs>
    <style>
      .cls-1, .cls-2 {
        fill: none;
      }

      .cls-2 {
        filter: url(#drop-shadow-1);
        opacity: .4;
        stroke: #f79e00;
        stroke-miterlimit: 10;
        stroke-width: 10px;
      }
    </style>
    <filter id="drop-shadow-1" filterUnits="userSpaceOnUse">
      <feOffset dx="7" dy="7"/>
      <feGaussianBlur result="blur" stdDeviation="5"/>
      <feFlood flood-color="#000" flood-opacity=".75"/>
      <feComposite in2="blur" operator="in"/>
      <feComposite in="SourceGraphic"/>
    </filter>
  </defs>
  <g id="Wires">
    <g>
      <path id="Normal" class="cls-2" d="M111.07,937.82l95.57,77.97m357-78l-112,78M8.64,241.78H1928.64m-71-84.25c0-12.15-9.85-22-22-22s-22,9.85-22,22,9.85,22,22,22,22-9.85,22-22Zm-1168.5-.25l-121.5,85.5m118.5-85.25H1813.64M35.11,242.14l76.53,85.65m0-2v755m94-64.89H1315.84m-752.5-78H1690.84m43.8-.11c0-12.15-9.85-22-22-22s-22,9.85-22,22,9.85,22,22,22,22-9.85,22-22Zm-373,78c0-12.15-9.85-22-22-22s-22,9.85-22,22,9.85,22,22,22,22-9.85,22-22Z"/>
      <line class="cls-1" x1="8.64" x2="9" y2="1080"/>
    </g>
  </g>
</svg>